<svg width="238" height="238" viewBox="0 0 238 238" fill="none" xmlns="http://www.w3.org/2000/svg">
<path d="M205.918 79.9156C206.572 78.8263 206.967 77.6008 207.07 76.3342C207.174 75.0677 206.984 73.7943 206.516 72.613C206.047 71.4318 205.312 70.3745 204.369 69.5234C203.425 68.6723 202.298 68.0504 201.075 67.7059C199.851 67.3614 198.565 67.3036 197.316 67.5371C196.067 67.7706 194.888 68.2891 193.872 69.0522C192.856 69.8153 192.03 70.8025 191.457 71.937C190.885 73.0715 190.582 74.3228 190.571 75.5935V75.6316C190.571 76.2552 190.714 76.7835 190.771 77.4737L191.619 85.3944C191.644 85.6241 191.722 85.8449 191.846 86.0393C191.971 86.2338 192.139 86.3967 192.338 86.5153C192.536 86.6338 192.759 86.7048 192.989 86.7225C193.22 86.7403 193.451 86.7044 193.665 86.6177L200.924 83.676C201.554 83.4619 202.17 83.2124 202.771 82.9287H202.8C204.09 82.2213 205.167 81.1808 205.918 79.9156ZM196.978 78.7589C196.36 78.389 195.866 77.844 195.558 77.193C195.249 76.542 195.141 75.8142 195.246 75.1017C195.352 74.3891 195.666 73.7238 196.15 73.1899C196.633 72.6561 197.264 72.2776 197.963 72.1024C198.662 71.9272 199.397 71.9632 200.075 72.2058C200.753 72.4484 201.344 72.8867 201.773 73.4652C202.202 74.0438 202.45 74.7366 202.486 75.4561C202.521 76.1755 202.342 76.8893 201.972 77.5071C201.474 78.334 200.67 78.93 199.734 79.1647C198.798 79.3993 197.807 79.2534 196.978 78.7589Z" fill="#A3FFAE"/>
<path d="M88.0569 87.7049L70.0858 91.7087L82.7733 148.656L100.744 144.652L88.0569 87.7049Z" fill="#263238"/>
<path d="M88.0568 87.7091L79.0713 89.7111L91.7246 146.505L100.71 144.503L88.0568 87.7091Z" fill="#263238"/>
<path d="M77.2401 84.2488L70.8935 85.6628L72.1388 91.252L78.4853 89.8381L77.2401 84.2488Z" fill="#263238"/>
<path d="M77.2388 84.2513L75.7242 84.5887L76.9695 90.178L78.4841 89.8405L77.2388 84.2513Z" fill="#263238"/>
<path d="M68.5916 92.0346L68.5202 91.7109L88.5122 87.2556L88.5836 87.5792" fill="#698492"/>
<path d="M75.6927 93.0211L74.1734 93.3596L74.8876 96.5654L76.4069 96.2269L75.6927 93.0211Z" fill="#A3FFAE"/>
<path d="M80.6153 96.628C80.6153 96.6613 78.6161 97.1373 76.1362 97.6895C73.6562 98.2416 71.638 98.6415 71.6285 98.6415C71.6189 98.6415 73.6277 98.1322 76.1076 97.58C78.5876 97.0278 80.6058 96.5709 80.6153 96.628Z" fill="#698492"/>
<path d="M84.7681 90.9807L83.2489 91.3195L83.9637 94.5251L85.4829 94.1864L84.7681 90.9807Z" fill="#698492"/>
<path d="M89.6784 94.586C89.6784 94.6193 87.6792 95.0953 85.1992 95.6474C82.7193 96.1996 80.701 96.6232 80.6915 96.5994C80.682 96.5756 82.6907 96.0901 85.1707 95.538C87.6506 94.9858 89.6689 94.5526 89.6784 94.586Z" fill="#698492"/>
<path d="M86.1868 97.3499L84.6676 97.6887L85.3824 100.894L86.9016 100.556L86.1868 97.3499Z" fill="#698492"/>
<path d="M91.0969 100.955C91.0969 100.988 89.0977 101.464 86.6177 102.016C84.1378 102.568 82.1195 102.968 82.11 102.968C82.1005 102.968 84.1092 102.459 86.5892 101.907C89.0691 101.355 91.0874 100.912 91.0969 100.955Z" fill="#698492"/>
<path d="M87.6506 103.909L86.1314 104.248L86.8462 107.453L88.3654 107.115L87.6506 103.909Z" fill="#698492"/>
<path d="M92.5582 107.514C92.5582 107.547 90.559 108.023 88.079 108.576C85.5991 109.128 83.5808 109.528 83.5713 109.528C83.5618 109.528 85.5705 109.018 88.0505 108.466C90.5304 107.914 92.5487 107.476 92.5582 107.514Z" fill="#698492"/>
<path d="M89.1145 110.469L87.5952 110.808L88.31 114.013L89.8293 113.675L89.1145 110.469Z" fill="#698492"/>
<path d="M94.0195 114.073C94.0195 114.107 92.0203 114.583 89.5404 115.135C87.0604 115.687 85.0422 116.087 85.0326 116.087C85.0231 116.087 87.0318 115.578 89.5118 115.025C91.9918 114.473 94.01 114.04 94.0195 114.073Z" fill="#698492"/>
<path d="M90.5177 116.863L88.9985 117.201L89.7127 120.407L91.232 120.069L90.5177 116.863Z" fill="#698492"/>
<path d="M95.438 120.428C95.438 120.461 93.4436 120.937 90.9588 121.49C88.4741 122.042 86.4606 122.465 86.4559 122.442C86.4511 122.418 88.4503 121.932 90.935 121.38C93.4198 120.828 95.4332 120.428 95.438 120.428Z" fill="#698492"/>
<path d="M91.9637 123.238L90.4445 123.577L91.1592 126.782L92.6785 126.444L91.9637 123.238Z" fill="#698492"/>
<path d="M93.3881 129.739L91.8688 130.078L92.5831 133.283L94.1023 132.945L93.3881 129.739Z" fill="#698492"/>
<path d="M96.866 126.84C96.866 126.873 94.8668 127.349 92.3868 127.906C89.9069 128.463 87.8886 128.858 87.8791 128.858C87.8696 128.858 89.8783 128.349 92.3583 127.796C94.8382 127.244 96.8565 126.806 96.866 126.84Z" fill="#698492"/>
<path d="M77.1493 99.4711L75.6301 99.8098L76.3449 103.015L77.8641 102.677L77.1493 99.4711Z" fill="#A3FFAE"/>
<path d="M82.0529 103.068C82.0529 103.102 80.0584 103.578 77.5737 104.13C75.089 104.682 73.0755 105.106 73.0708 105.082C73.066 105.058 75.0652 104.572 77.5499 104.02C80.0346 103.468 82.0481 103.035 82.0529 103.068Z" fill="#698492"/>
<path d="M78.5882 105.933L77.0689 106.272L77.7837 109.477L79.303 109.138L78.5882 105.933Z" fill="#A3FFAE"/>
<path d="M83.4952 109.532C83.4952 109.566 81.496 110.042 79.016 110.599C76.536 111.156 74.5178 111.551 74.5083 111.551C74.4988 111.551 76.5075 111.041 78.9874 110.489C81.4674 109.937 83.4856 109.48 83.4952 109.532Z" fill="#698492"/>
<path d="M80.0271 112.4L78.5079 112.739L79.2227 115.945L80.7419 115.606L80.0271 112.4Z" fill="#A3FFAE"/>
<path d="M84.9374 116.001C84.9374 116.035 82.9382 116.511 80.4583 117.063C77.9783 117.615 75.9601 118.015 75.9505 118.015C75.941 118.015 77.9498 117.505 80.4297 116.953C82.9097 116.401 84.9279 115.963 84.9374 116.001Z" fill="#698492"/>
<path d="M81.4583 118.876L79.9391 119.214L80.6533 122.42L82.1726 122.082L81.4583 118.876Z" fill="#A3FFAE"/>
<path d="M86.375 122.465C86.375 122.499 84.3805 122.975 81.9006 123.527C79.4206 124.079 77.3976 124.479 77.3928 124.479C77.3881 124.479 79.3873 123.969 81.872 123.417C84.3567 122.865 86.3702 122.432 86.375 122.465Z" fill="#698492"/>
<path d="M82.9144 125.324L81.3952 125.663L82.11 128.868L83.6292 128.529L82.9144 125.324Z" fill="#A3FFAE"/>
<path d="M87.8172 128.929C87.8172 128.963 85.818 129.439 83.3381 129.991C80.8581 130.543 78.8399 130.967 78.8351 130.943C78.8304 130.919 80.8296 130.434 83.3095 129.881C85.7895 129.329 87.8077 128.896 87.8172 128.929Z" fill="#698492"/>
<path d="M84.3533 131.791L82.8341 132.13L83.5489 135.336L85.0681 134.997L84.3533 131.791Z" fill="#A3FFAE"/>
<path d="M117.101 113.74L90.3482 116.302L93.7272 151.588L120.48 149.026L117.101 113.74Z" fill="#263238"/>
<path d="M117.103 113.736L104.56 114.937L107.939 150.223L120.482 149.022L117.103 113.736Z" fill="#698492"/>
<path d="M98.8248 120.309L96.4177 120.539L96.9772 126.382L99.3843 126.151L98.8248 120.309Z" fill="#263238"/>
<path d="M101.015 143.187L98.6075 143.417L99.167 149.26L101.574 149.029L101.015 143.187Z" fill="#263238"/>
<path d="M105.796 127.854C105.796 127.92 102.626 128.277 98.7034 128.653C94.7811 129.029 91.5967 129.282 91.5634 129.215C91.53 129.148 94.7335 128.791 98.6558 128.415C102.578 128.039 105.791 127.787 105.796 127.854Z" fill="#263238"/>
<path d="M99.9278 131.833L97.5208 132.063L98.0802 137.905L100.487 137.675L99.9278 131.833Z" fill="#263238"/>
<path d="M106.9 139.378C106.9 139.444 103.73 139.801 99.8077 140.177C95.8854 140.553 92.6962 140.806 92.6677 140.739C92.6391 140.672 95.8378 140.315 99.7601 139.939C103.682 139.563 106.895 139.311 106.9 139.378Z" fill="#263238"/>
<path d="M110.09 119.231L107.683 119.461L108.243 125.303L110.65 125.073L110.09 119.231Z" fill="#263238"/>
<path d="M115.302 118.736L112.895 118.966L113.455 124.808L115.862 124.578L115.302 118.736Z" fill="#263238"/>
<path d="M111.147 130.322L108.74 130.553L109.299 136.395L111.706 136.164L111.147 130.322Z" fill="#263238"/>
<path d="M116.369 129.818L113.962 130.048L114.521 135.89L116.928 135.66L116.369 129.818Z" fill="#263238"/>
<path d="M112.209 141.414L109.802 141.644L110.361 147.486L112.768 147.256L112.209 141.414Z" fill="#263238"/>
<path d="M117.431 140.909L115.023 141.139L115.583 146.981L117.99 146.751L117.431 140.909Z" fill="#263238"/>
<path d="M118.994 112.319L88.2187 115.266L88.3408 116.541L119.116 113.594L118.994 112.319Z" fill="#698492"/>
<path d="M117.305 113.883C117.305 113.95 111.341 114.573 103.977 115.278C96.6137 115.982 90.6161 116.506 90.6114 116.439C90.6066 116.373 96.5804 115.749 103.939 115.044C111.298 114.34 117.301 113.816 117.305 113.883Z" fill="#263238"/>
<path d="M93.6387 152.615L68.8582 163.568L51.4461 124.455L76.2219 113.502L93.6387 152.615Z" fill="#263238"/>
<path d="M76.218 113.506L63.8269 118.982L81.1325 158.145L93.5236 152.669L76.218 113.506Z" fill="#698492"/>
<path d="M59.6135 111.633L50.8622 115.501L54.2695 123.211L63.0207 119.344L59.6135 111.633Z" fill="#263238"/>
<path d="M59.6147 111.632L57.5292 112.554L60.9364 120.264L63.0219 119.343L59.6147 111.632Z" fill="#698492"/>
<path d="M76.7477 112.739L49.179 124.922L49.3772 125.37L76.9458 113.188L76.7477 112.739Z" fill="#698492"/>
<path d="M59.911 124.733L57.8124 125.661L59.7671 130.084L61.8657 129.157L59.911 124.733Z" fill="#263238"/>
<path d="M68.0394 128.52C68.0632 128.568 65.3024 129.834 61.8848 131.343C58.4671 132.852 55.6968 134.046 55.6492 133.999C55.6016 133.951 58.3862 132.69 61.8086 131.176C65.231 129.662 68.0204 128.453 68.0394 128.52Z" fill="#698492"/>
<path d="M72.4116 119.212L70.313 120.139L72.2677 124.563L74.3663 123.635L72.4116 119.212Z" fill="#263238"/>
<path d="M80.5392 122.975C80.5392 123.022 77.8022 124.284 74.3798 125.797C70.9573 127.311 68.1918 128.496 68.1489 128.449C68.1061 128.401 70.8859 127.14 74.3084 125.626C77.7308 124.112 80.5154 122.927 80.5392 122.975Z" fill="#263238"/>
<path d="M76.2895 127.988L74.1909 128.916L76.1456 133.339L78.2442 132.412L76.2895 127.988Z" fill="#263238"/>
<path d="M84.4186 131.757C84.4186 131.804 81.6816 133.066 78.2592 134.58C74.8367 136.093 72.0712 137.278 72.0283 137.231C71.9855 137.183 74.7653 135.922 78.1878 134.408C81.6102 132.894 84.3996 131.709 84.4186 131.757Z" fill="#263238"/>
<path d="M80.2912 137.039L78.1926 137.966L80.1473 142.389L82.2458 141.462L80.2912 137.039Z" fill="#263238"/>
<path d="M88.417 140.801C88.417 140.848 85.68 142.11 82.2576 143.624C78.8351 145.137 76.0458 146.322 76.0267 146.275C76.0077 146.227 78.7637 144.966 82.1862 143.452C85.6086 141.938 88.3932 140.753 88.417 140.801Z" fill="#263238"/>
<path d="M84.2818 146.086L82.1832 147.014L84.1379 151.437L86.2365 150.51L84.2818 146.086Z" fill="#263238"/>
<path d="M92.4154 149.845C92.4154 149.892 89.6784 151.159 86.256 152.668C82.8335 154.176 80.0442 155.366 80.0251 155.324C80.0061 155.281 82.7621 154.01 86.1846 152.501C89.607 150.992 92.3916 149.797 92.4154 149.845Z" fill="#263238"/>
<path d="M63.8541 133.647L61.7555 134.574L63.7102 138.997L65.8088 138.07L63.8541 133.647Z" fill="#263238"/>
<path d="M71.9807 137.412C71.9807 137.459 69.2437 138.721 65.8213 140.234C62.3988 141.748 59.6333 142.933 59.5904 142.89C59.5476 142.848 62.3274 141.577 65.7499 140.068C69.1723 138.559 71.9617 137.364 71.9807 137.412Z" fill="#698492"/>
<path d="M67.7881 142.566L65.6896 143.494L67.6443 147.917L69.7428 146.99L67.7881 142.566Z" fill="#263238"/>
<path d="M75.922 146.327C75.922 146.375 73.185 147.636 69.7626 149.15C66.3401 150.664 63.5508 151.849 63.5317 151.801C63.5127 151.754 66.2687 150.492 69.6864 148.979C73.1041 147.465 75.8982 146.28 75.922 146.327Z" fill="#698492"/>
<path d="M71.7313 151.484L69.6327 152.412L71.5874 156.835L73.686 155.908L71.7313 151.484Z" fill="#263238"/>
<path d="M79.8585 155.243C79.8585 155.29 77.1263 156.552 73.7038 158.065C70.2814 159.579 67.492 160.764 67.473 160.717C67.454 160.669 70.2052 159.408 73.6277 157.894C77.0501 156.38 79.8395 155.176 79.8585 155.243Z" fill="#698492"/>
<path d="M183.098 143.414L172.945 155.314C172.893 155.375 172.853 155.446 172.828 155.522C172.803 155.598 172.793 155.679 172.799 155.759C172.805 155.839 172.827 155.917 172.864 155.988C172.9 156.06 172.951 156.124 173.012 156.176L198.016 177.477C198.077 177.53 198.148 177.57 198.225 177.595C198.302 177.62 198.383 177.629 198.464 177.623C198.545 177.616 198.623 177.593 198.695 177.556C198.767 177.519 198.831 177.467 198.882 177.405L202.543 172.993C202.624 172.892 202.672 172.769 202.681 172.64L203.181 164.801C203.187 164.707 203.171 164.613 203.135 164.526C203.099 164.439 203.043 164.362 202.971 164.301L198.868 160.75C198.747 160.644 198.672 160.495 198.66 160.334C198.649 160.174 198.701 160.015 198.806 159.893L200.339 158.089C200.391 158.029 200.431 157.959 200.456 157.883C200.481 157.807 200.491 157.727 200.484 157.647C200.478 157.567 200.456 157.49 200.42 157.418C200.383 157.347 200.333 157.284 200.272 157.232L183.984 143.347C183.922 143.291 183.85 143.248 183.771 143.221C183.693 143.194 183.609 143.183 183.526 143.189C183.443 143.196 183.363 143.219 183.289 143.257C183.215 143.296 183.15 143.349 183.098 143.414Z" fill="#263238"/>
<path d="M198.659 162.387L195.403 166.195C195.347 166.265 195.32 166.353 195.328 166.442C195.336 166.531 195.378 166.613 195.446 166.671L201.043 171.274C201.092 171.314 201.151 171.34 201.213 171.349C201.276 171.358 201.339 171.35 201.398 171.326C201.456 171.303 201.507 171.264 201.545 171.213C201.583 171.163 201.607 171.104 201.615 171.041L202.3 165.072C202.307 165.014 202.299 164.956 202.277 164.902C202.255 164.848 202.221 164.8 202.176 164.763L199.168 162.34C199.132 162.308 199.09 162.283 199.045 162.268C198.999 162.253 198.951 162.247 198.903 162.252C198.855 162.256 198.809 162.271 198.766 162.294C198.724 162.317 198.688 162.349 198.659 162.387Z" fill="#263238"/>
<path d="M198.657 178.656L171.747 155.721L171.04 156.551L197.95 179.485L198.657 178.656Z" fill="#263238"/>
<path d="M180.366 163.63C179.917 164.157 179.323 164.539 178.657 164.727C177.991 164.916 177.284 164.903 176.626 164.691C175.967 164.478 175.387 164.074 174.958 163.532C174.529 162.989 174.27 162.331 174.215 161.641C174.159 160.951 174.31 160.261 174.647 159.656C174.985 159.052 175.493 158.561 176.11 158.246C176.726 157.932 177.421 157.806 178.109 157.887C178.796 157.967 179.444 158.25 179.971 158.698C180.321 158.996 180.609 159.36 180.819 159.769C181.028 160.178 181.155 160.624 181.191 161.082C181.228 161.54 181.174 162.001 181.032 162.438C180.891 162.875 180.664 163.28 180.366 163.63Z" fill="#263238"/>
<path d="M179.271 162.697C179.007 163.007 178.657 163.233 178.264 163.344C177.872 163.456 177.456 163.448 177.068 163.323C176.68 163.198 176.338 162.96 176.085 162.641C175.832 162.321 175.679 161.933 175.646 161.527C175.614 161.12 175.702 160.713 175.901 160.357C176.1 160.001 176.4 159.712 176.763 159.527C177.126 159.341 177.536 159.267 177.941 159.315C178.346 159.362 178.728 159.529 179.038 159.793C179.454 160.148 179.712 160.652 179.755 161.197C179.799 161.741 179.625 162.281 179.271 162.697Z" fill="#A3FFAE"/>
<path d="M189.743 170.451C189.676 170.394 192.076 167.471 195.098 163.925C198.121 160.379 200.624 157.551 200.691 157.608C200.758 157.666 198.363 160.588 195.341 164.134C192.318 167.681 189.815 170.508 189.743 170.451Z" fill="#263238"/>
<path d="M194.865 175.992C194.416 176.518 193.821 176.9 193.155 177.088C192.489 177.276 191.782 177.263 191.124 177.049C190.465 176.836 189.885 176.432 189.457 175.888C189.028 175.345 188.77 174.687 188.715 173.997C188.661 173.307 188.812 172.617 189.15 172.013C189.488 171.409 189.997 170.919 190.614 170.604C191.23 170.29 191.926 170.165 192.613 170.247C193.3 170.328 193.948 170.611 194.475 171.06C194.825 171.358 195.113 171.721 195.323 172.131C195.532 172.54 195.658 172.986 195.695 173.445C195.731 173.903 195.676 174.364 195.534 174.801C195.392 175.238 195.164 175.643 194.865 175.992Z" fill="#263238"/>
<path d="M193.77 175.059C193.506 175.367 193.156 175.591 192.764 175.7C192.373 175.81 191.958 175.802 191.572 175.676C191.185 175.55 190.845 175.312 190.593 174.993C190.342 174.674 190.19 174.287 190.159 173.882C190.127 173.477 190.216 173.071 190.414 172.717C190.612 172.362 190.912 172.074 191.274 171.889C191.636 171.704 192.044 171.631 192.448 171.678C192.852 171.726 193.232 171.891 193.542 172.155C193.748 172.33 193.917 172.545 194.04 172.786C194.163 173.027 194.237 173.29 194.259 173.559C194.28 173.829 194.248 174.1 194.164 174.358C194.08 174.615 193.946 174.853 193.77 175.059Z" fill="#A3FFAE"/>
<path d="M196.398 168.818C196.34 168.885 195.922 168.614 195.446 168.214C194.97 167.814 194.636 167.433 194.694 167.366C194.751 167.3 195.17 167.571 195.646 167.971C196.122 168.371 196.455 168.752 196.398 168.818Z" fill="#263238"/>
<path d="M33.796 140.177C33.0304 139.162 32.041 138.338 30.9047 137.767C29.7684 137.197 28.5159 136.897 27.2446 136.89C25.9733 136.883 24.7175 137.169 23.575 137.727C22.4324 138.284 21.4339 139.098 20.6572 140.104C19.8804 141.111 19.3463 142.283 19.0965 143.53C18.8467 144.776 18.8879 146.063 19.2169 147.291C19.5459 148.519 20.1537 149.655 20.9932 150.61C21.8327 151.564 22.8812 152.313 24.057 152.796H24.0951C24.6711 153.034 25.2185 153.096 25.8754 153.305L33.539 155.481C33.7606 155.544 33.9938 155.555 34.2204 155.513C34.447 155.471 34.6608 155.377 34.8451 155.239C35.0295 155.101 35.1794 154.922 35.2831 154.716C35.3868 154.51 35.4415 154.283 35.443 154.053V146.218C35.48 145.553 35.48 144.888 35.443 144.223V144.195C35.2621 142.733 34.6935 141.346 33.796 140.177ZM29.393 148.036C28.8191 148.47 28.1296 148.723 27.4115 148.765C26.6934 148.807 25.9791 148.635 25.3588 148.271C24.7386 147.906 24.2403 147.366 23.9269 146.719C23.6136 146.071 23.4993 145.346 23.5985 144.633C23.6977 143.921 24.006 143.254 24.4843 142.716C24.9626 142.179 25.5894 141.796 26.2856 141.615C26.9818 141.434 27.716 141.464 28.3953 141.7C29.0747 141.936 29.6687 142.369 30.1022 142.943C30.6835 143.712 30.9353 144.681 30.8023 145.636C30.6693 146.591 30.1624 147.455 29.393 148.036Z" fill="#A3FFAE"/>
<path d="M57.596 41.8547C57.0994 40.1988 56.2275 38.6798 55.0481 37.4158C53.8687 36.1519 52.4136 35.1771 50.796 34.5672C49.1784 33.9573 47.4419 33.7288 45.7216 33.8995C44.0014 34.0702 42.3436 34.6355 40.8774 35.5513C39.4112 36.4672 38.1761 37.709 37.268 39.18C36.36 40.6511 35.8036 42.3118 35.6421 44.033C35.4806 45.7542 35.7183 47.4894 36.3368 49.1037C36.9553 50.7181 37.9379 52.1679 39.2081 53.3406L39.251 53.3739C39.8745 53.9451 40.5409 54.2878 41.2835 54.859L50.0324 61.2469C50.2868 61.4317 50.5807 61.5548 50.8908 61.6064C51.201 61.6581 51.5189 61.6369 51.8194 61.5445C52.12 61.4522 52.3949 61.2912 52.6226 61.0744C52.8502 60.8575 53.0243 60.5907 53.1311 60.2949L56.8154 50.2989C57.1795 49.4699 57.4973 48.6213 57.7674 47.7571V47.719C58.2346 45.784 58.1755 43.7591 57.596 41.8547ZM48.2331 49.7896C47.2967 50.0726 46.2975 50.0716 45.3617 49.7867C44.4259 49.5018 43.5956 48.9458 42.9759 48.189C42.3561 47.4322 41.9747 46.5086 41.8798 45.535C41.785 44.5614 41.981 43.5816 42.443 42.7194C42.9051 41.8572 43.6124 41.1514 44.4756 40.6913C45.3388 40.2311 46.3191 40.0372 47.2925 40.1342C48.2658 40.2312 49.1886 40.6146 49.944 41.2361C50.6995 41.8575 51.2537 42.689 51.5365 43.6254C51.9158 44.8809 51.7808 46.2356 51.1613 47.3916C50.5418 48.5476 49.4885 49.4101 48.2331 49.7896Z" fill="#A3FFAE"/>
<path d="M116.644 34.5576C116.868 32.9487 114.592 31.6207 112.883 31.4826C112.069 31.4208 111.222 31.5445 110.451 31.2732C108.78 30.6925 108.109 28.5315 106.476 27.8413C105.258 27.3272 103.854 27.7841 102.668 28.3791C101.483 28.9741 100.317 29.7262 98.9937 29.8071C97.8466 29.8785 96.6137 29.4549 95.5903 30.0118C94.843 30.4307 94.4479 31.297 93.7577 31.8063C93.0429 32.2459 92.2167 32.4707 91.3777 32.4537C90.5364 32.4353 89.6988 32.5725 88.9073 32.8583C88.1457 33.2058 87.5126 34.015 87.6697 34.8385L116.644 34.5576Z" fill="#263238"/>
<path d="M49.623 97.699C49.4659 96.6566 47.8094 96.2472 46.7194 96.471C46.2179 96.6425 45.6963 96.7481 45.1676 96.7851C44.0205 96.728 43.2113 95.5047 42.0689 95.3571C41.2168 95.2572 40.4219 95.7998 39.7984 96.3853C39.1748 96.9708 38.5798 97.6514 37.7706 97.9466C37.0709 98.2036 36.2141 98.1655 35.6905 98.6986C35.3002 99.0937 35.2145 99.703 34.8765 100.15C34.5107 100.557 34.0343 100.848 33.5056 100.988C32.9786 101.129 32.4828 101.368 32.0443 101.693C31.8278 101.859 31.6708 102.09 31.597 102.353C31.5232 102.615 31.5365 102.895 31.635 103.149L49.623 97.699Z" fill="#263238"/>
<path d="M184.688 114.959C185.083 113.616 183.317 112.198 181.88 111.865C181.194 111.703 180.452 111.703 179.838 111.389C178.49 110.68 178.195 108.757 176.896 107.966C175.944 107.371 174.673 107.581 173.588 107.938C172.502 108.295 171.417 108.78 170.284 108.685C169.299 108.599 168.29 108.081 167.362 108.428C166.671 108.69 166.229 109.38 165.577 109.718C164.908 110.005 164.17 110.092 163.454 109.966C162.741 109.842 162.011 109.851 161.302 109.994C160.95 110.075 160.632 110.267 160.397 110.542C160.163 110.818 160.022 111.161 159.998 111.522L184.688 114.959Z" fill="#263238"/>
<path d="M165.043 221.173C164.963 220.064 165.896 219.079 166.924 218.603C167.952 218.127 169.109 217.965 170.165 217.537C170.584 217.361 171.051 217.061 171.065 216.613C171.065 215.947 170.137 215.661 169.894 215.057C169.637 214.357 170.37 213.71 170.665 213.024C171.322 211.468 169.684 209.897 168.095 209.259C166.505 208.621 164.61 208.164 163.873 206.641C163.602 205.908 163.43 205.143 163.358 204.366C162.987 202.462 161.559 200.586 159.603 200.267C157.646 199.949 155.443 201.695 155.761 203.599C155.957 204.666 156.756 205.503 157.189 206.455C157.623 207.407 157.513 208.902 156.485 209.221C154.8 209.73 153.177 206.679 151.763 207.726C152.344 209.683 152.905 211.634 153.481 213.605C151.268 214.719 148.617 212.701 147.669 210.411C146.722 208.121 146.689 205.537 145.566 203.342C144.442 201.148 141.405 199.501 139.478 201.058C139.382 203.885 143.157 205.027 144.828 207.317C146.032 208.969 145.856 211.653 144.071 212.701C142.286 213.748 139.497 211.925 140.168 210.002C140.41 209.335 140.972 208.778 141.034 208.06C141.101 207.174 140.344 206.455 139.654 205.884C138.578 204.98 137.502 204.09 136.426 203.2C135.765 202.574 134.985 202.088 134.132 201.772C131.914 201.134 129.7 202.914 128.525 204.87C127.349 206.827 126.697 209.154 125.074 210.778C122.746 213.158 118.329 213.305 116.144 210.811C113.959 208.317 115.068 203.671 118.296 202.743C119.519 202.409 121.056 202.438 121.704 201.372C122.827 199.468 119.614 197.088 120.723 195.184C121.57 193.722 123.822 194.389 125.459 193.894C127.097 193.399 127.996 191.78 128.958 190.386C129.919 188.991 131.4 187.606 133.071 187.968C132.942 187.016 132.814 185.954 133.247 185.078C133.68 184.202 134.903 183.617 135.703 184.188C134.884 185.526 135.865 187.382 137.293 188.049C138.721 188.715 140.391 188.558 141.967 188.382C143.543 188.206 145.518 187.62 145.646 186.064C145.694 185.554 145.499 185.016 145.694 184.54C146.384 182.679 149.854 185.235 151.187 183.746C151.958 182.965 151.106 181.584 150.03 181.327C148.955 181.07 147.86 181.456 146.77 181.489C145.68 181.523 144.342 180.966 144.295 179.885C144.247 178.805 145.451 178.057 145.58 177.029C145.789 175.249 142.724 174.787 141.662 176.234C140.601 177.681 140.972 179.666 141.291 181.427C141.61 183.189 141.791 185.273 140.472 186.511C139.911 187.354 138.449 186.911 137.969 186.035C137.488 185.159 137.583 184.064 137.493 183.065C137.402 182.065 136.964 180.904 135.969 180.632C135.279 180.442 134.541 180.775 133.832 180.87C131.038 181.204 129.096 177.629 129.977 174.992C130.857 172.355 133.38 170.641 135.841 169.28C137.64 168.295 139.873 167.376 141.653 168.375C142.486 168.851 143.081 169.627 143.885 170.108C145.313 170.932 147.051 170.632 148.669 170.66C151.234 170.73 153.698 171.676 155.652 173.34C156.376 173.992 157.047 175.073 156.485 175.853C155.923 176.634 154.129 176.853 154.433 177.824C156.337 178.443 158.589 176.996 158.798 175.044C159.262 175.25 159.663 175.576 159.959 175.989C160.256 176.401 160.437 176.885 160.483 177.391C162.525 175.344 166.443 175.644 168.099 178.014C168.547 178.633 168.871 179.381 169.527 179.809C170.184 180.237 171.293 180.014 171.374 179.266C171.389 179.026 171.344 178.786 171.246 178.567C170.86 177.486 170.46 176.425 170.075 175.358C171.565 174.563 173.331 175.806 174.359 177.139C178.114 182.113 180.799 179.124 186.097 179.933C189.681 180.475 191.252 182.746 193.275 185.492C199.463 193.946 207.665 200.872 213.3 209.707C213.895 210.625 214.443 211.563 214.957 212.515C214.862 212.277 214.781 212.039 214.681 211.801C212.477 206.064 209.736 200.548 206.494 195.327C205.803 194.218 205.094 193.118 204.375 192.037C203.923 191.371 203.457 190.69 202.99 190.038C202.4 189.181 201.772 188.353 201.143 187.53C200.667 186.859 200.148 186.211 199.634 185.573C199.282 185.131 198.911 184.683 198.544 184.241C198.178 183.798 197.74 183.241 197.292 182.746L195.941 181.204C195.812 181.047 195.669 180.89 195.507 180.728C195.031 180.19 194.555 179.666 194.046 179.143C194.012 179.078 193.963 179.023 193.903 178.981C193.775 178.838 193.632 178.695 193.484 178.552C193.085 178.11 192.651 177.677 192.233 177.248C191.542 176.553 190.833 175.853 190.114 175.187C189.519 174.597 188.91 174.04 188.282 173.483C187.734 173.007 187.192 172.502 186.63 172.022C186.068 171.541 185.535 171.07 184.974 170.627C184.298 170.056 183.607 169.499 182.903 168.942C180.961 167.4 178.96 165.943 176.901 164.572C176.387 164.225 175.887 163.892 175.373 163.558C174.859 163.225 174.33 162.887 173.816 162.573C173.302 162.259 172.774 161.921 172.241 161.621C171.707 161.321 171.184 160.988 170.651 160.669C170.218 160.412 169.803 160.193 169.366 159.95C169.154 159.817 168.934 159.696 168.709 159.589C167.795 159.079 166.862 158.584 165.929 158.127C165.453 157.889 165.001 157.651 164.501 157.427C163.911 157.123 163.297 156.837 162.687 156.571C162.601 156.519 162.51 156.476 162.416 156.442C161.869 156.185 161.326 155.933 160.759 155.695C159.974 155.362 159.189 155.028 158.379 154.71C157.48 154.343 156.58 153.981 155.662 153.643C154.652 153.262 153.639 152.901 152.61 152.568C151.582 152.234 150.54 151.882 149.497 151.563C148.455 151.244 147.408 150.959 146.346 150.673C144.261 150.121 142.143 149.626 140.006 149.197C139.967 149.189 139.929 149.177 139.892 149.164C139.073 149.007 138.254 148.85 137.435 148.721C137.383 148.705 137.329 148.694 137.274 148.688C136.921 148.626 136.555 148.564 136.184 148.517C134.656 148.26 133.118 148.041 131.557 147.879C131.371 147.848 131.183 147.827 130.995 147.817C130.548 147.75 130.096 147.722 129.629 147.674C128.606 147.579 127.578 147.498 126.53 147.436C125.483 147.374 124.365 147.308 123.27 147.274C122.175 147.241 120.99 147.213 119.852 147.213C116.834 147.213 113.847 147.344 110.889 147.608C110.184 147.655 109.494 147.722 108.804 147.798C108.114 147.874 107.376 147.96 106.634 148.055C105.891 148.15 105.206 148.245 104.482 148.355C103.758 148.464 103.054 148.579 102.33 148.707C101.721 148.802 101.093 148.912 100.484 149.04C98.9747 149.326 97.48 149.64 96.0044 149.992C95.3142 150.149 94.624 150.326 93.9338 150.516C93.2436 150.706 92.5487 150.882 91.8775 151.073C90.7351 151.392 89.626 151.739 88.5217 152.087C87.6221 152.391 86.7082 152.691 85.8276 152.996C85.8029 152.998 85.7796 153.008 85.7609 153.024C84.847 153.343 83.9616 153.677 83.062 154.029L82.9192 154.076C82.1005 154.391 81.2818 154.724 80.4773 155.062C79.4634 155.471 78.4686 155.919 77.488 156.361C76.655 156.742 75.8363 157.123 75.0319 157.523C74.2274 157.923 73.2992 158.379 72.4472 158.822L72.352 158.875C71.5333 159.303 70.7146 159.746 69.9101 160.207C69.1057 160.669 68.2584 161.159 67.4397 161.635C66.6686 162.111 65.9165 162.554 65.1596 163.03C64.8693 163.206 64.598 163.397 64.3076 163.587C63.5079 164.096 62.7368 164.62 61.9276 165.158C60.9756 165.81 60.0236 166.495 59.1049 167.176C58.2814 167.78 57.4818 168.399 56.6916 169.018C52.1538 172.604 47.9321 176.572 44.0728 180.88C42.7067 182.37 41.4215 183.898 40.1696 185.454C39.1082 186.787 38.08 188.139 37.0994 189.538C37.3565 189.505 37.6183 189.472 37.8706 189.458C39.2986 189.348 40.8456 189.396 42.1546 188.772C43.3588 188.187 44.2109 187.12 45.3009 186.359C48.095 184.388 52.6742 184.022 53.4262 180.718C53.6833 179.609 53.3786 178.4 53.7975 177.334C54.5829 175.349 57.2676 175.063 59.4191 175.097C60.333 175.097 61.4088 175.225 61.8276 176.015C62.1323 176.572 61.9562 177.272 61.7277 177.862C60.3758 181.607 57.7732 184.771 54.3592 186.82C51.5651 188.506 47.9189 189.805 47.1478 192.951C47.5334 194.018 49.4945 193.937 49.6516 195.051C49.7658 195.936 48.6091 196.398 48.1902 197.193C47.581 198.354 48.9804 199.768 50.3132 199.701C51.646 199.634 52.7551 198.687 53.7309 197.797C56.6535 195.112 59.7237 192.218 60.7804 188.41C61.2564 186.835 61.3945 184.993 62.6844 183.945C64.2124 182.703 66.9446 183.565 67.4444 185.454C68.7106 184.755 70.686 184.231 71.3429 185.535C71.5714 186.011 71.5047 186.535 71.619 187.025C72.0331 189.058 74.8462 189.981 75.1366 192.028C75.4698 194.408 72.4044 195.622 70.0101 195.988C67.8443 196.321 65.6737 196.655 63.5079 197.002C62.5532 197.07 61.6282 197.364 60.809 197.859C60.0379 198.43 59.5571 199.511 60.0046 200.353C60.3323 200.78 60.7112 201.165 61.1327 201.5C62.932 203.276 61.4516 206.946 58.9145 207.027C58.0482 207.06 57.1962 206.741 56.3298 206.708C53.7594 206.598 51.7222 208.835 50.4988 211.077C49.2755 213.319 48.3616 215.876 46.31 217.399C42.978 219.86 37.2994 219.303 35.6952 223.073C35.0526 224.596 35.3858 226.309 35.6429 227.947C35.6857 228.204 35.719 228.47 35.7524 228.737H106.343C107.814 228.152 109.409 227.718 110.665 226.785C113.559 224.643 113.945 220.559 115.768 217.475C117.591 214.39 123.284 213.091 124.141 216.58C130.176 203.804 143.514 222.768 151.444 221.34C153.748 220.926 155.995 219.831 158.313 220.155C162.306 220.707 164.415 224.958 165.81 228.723H169.142C168.761 227.399 168.78 225.943 168.004 224.82C167.076 223.525 165.172 222.768 165.043 221.173ZM111.208 164.458C110.584 165.886 110.865 167.685 109.908 168.932C109.147 169.918 107.828 170.27 106.61 170.556L98.9366 172.36C97.7865 172.57 96.6745 172.952 95.6379 173.492C93.6292 174.682 92.5582 176.929 91.0064 178.662C89.4547 180.394 86.6748 181.637 84.8422 180.195C84.4266 179.819 84.0906 179.364 83.8543 178.856C83.618 178.348 83.4861 177.798 83.4666 177.239C83.3279 175.628 83.7118 174.016 84.5614 172.64C85.4325 171.212 86.77 170.122 87.5078 168.642C88.2456 167.162 88.0981 164.986 86.5558 164.291C85.7371 163.915 84.7042 164.063 83.9759 163.535C82.6669 162.583 83.6046 160.326 85.1231 159.755C86.6415 159.184 88.3313 159.631 89.9545 159.731C95.8331 160.103 100.16 156.295 104.582 153.129C108.023 150.668 115.349 147.76 119.338 150.273C120.923 151.278 121.547 153.857 120.052 154.99C119.381 155.495 118.457 155.609 117.834 156.171C117.086 156.847 116.982 157.951 116.553 158.86C115.454 161.212 112.241 162.068 111.208 164.458Z" fill="#455A64"/>
<g opacity="0.3">
<path d="M109.908 168.932C110.86 167.685 110.584 165.9 111.208 164.458C112.241 162.078 115.454 161.212 116.568 158.86C116.996 157.951 117.101 156.847 117.848 156.171C118.472 155.609 119.395 155.495 120.066 154.99C121.561 153.857 120.937 151.278 119.352 150.273C115.373 147.76 108.047 150.668 104.596 153.129C100.174 156.295 95.8474 160.103 89.9688 159.731C88.3456 159.631 86.6606 159.189 85.1374 159.755C83.6142 160.322 82.6812 162.578 83.9902 163.535C84.7185 164.063 85.7514 163.915 86.5701 164.291C88.0886 164.986 88.2409 167.147 87.5221 168.642C86.8034 170.137 85.4468 171.231 84.5757 172.64C83.7261 174.016 83.3422 175.628 83.4809 177.239C83.5004 177.798 83.6322 178.348 83.8686 178.856C84.1049 179.364 84.4408 179.819 84.8565 180.195C86.6891 181.623 89.4737 180.399 91.0207 178.662C92.5677 176.924 93.6435 174.682 95.6522 173.492C96.6888 172.952 97.8008 172.57 98.9509 172.36L106.624 170.556C107.828 170.27 109.147 169.932 109.908 168.932Z" fill="black"/>
<path d="M158.313 220.16C155.995 219.836 153.748 220.931 151.444 221.345C143.514 222.773 130.176 203.79 124.141 216.585C123.298 213.11 117.591 214.419 115.768 217.503C113.945 220.588 113.559 224.672 110.665 226.814C109.409 227.766 107.809 228.18 106.343 228.766H165.81C164.415 224.962 162.316 220.712 158.313 220.16Z" fill="black"/>
<path d="M75.1318 192.037C74.8415 189.991 72.0283 189.067 71.6142 187.035C71.5 186.559 71.5666 186.002 71.3381 185.545C70.6812 184.241 68.7058 184.764 67.4397 185.464C66.9256 183.56 64.1934 182.713 62.6797 183.955C61.3992 185.002 61.2517 186.844 60.7757 188.42C59.719 192.228 56.6488 195.122 53.7261 197.807C52.7741 198.697 51.6412 199.649 50.3084 199.711C48.9756 199.772 47.5762 198.364 48.1855 197.202C48.6044 196.407 49.761 195.945 49.6468 195.06C49.4897 193.946 47.5286 194.027 47.143 192.961C47.9142 189.815 51.5603 188.515 54.3544 186.83C57.7684 184.781 60.371 181.617 61.7229 177.872C61.9514 177.281 62.1275 176.582 61.8229 176.025C61.404 175.235 60.3282 175.106 59.4143 175.106C57.2628 175.073 54.5782 175.358 53.7928 177.343C53.3739 178.41 53.6785 179.619 53.4215 180.728C52.6694 184.031 48.0903 184.398 45.2962 186.368C44.2061 187.13 43.3541 188.196 42.1498 188.782C40.8503 189.405 39.3224 189.358 37.8658 189.467C37.6135 189.467 37.3517 189.515 37.0947 189.548C36.2188 190.751 35.37 191.987 34.5481 193.256C33.7262 194.525 32.9329 195.803 32.1681 197.088C28.5431 203.223 25.5937 209.733 23.3716 216.504C22.5846 218.881 21.8897 221.294 21.2867 223.744C20.8805 225.394 20.5188 227.062 20.2014 228.747H20.6774C20.9964 227.642 21.2344 226.538 21.4343 225.576C21.4866 225.334 21.5342 225.1 21.5818 224.877C22.115 222.497 22.9004 219.969 24.7806 218.36C26.6608 216.751 29.9547 216.58 31.416 218.57C32.4584 219.998 32.2204 221.954 31.9491 223.701C31.6778 225.448 31.416 227.052 31.1447 228.747H35.7476C35.7143 228.48 35.681 228.213 35.6381 227.956C35.3811 226.319 35.0479 224.624 35.6905 223.082C37.2946 219.274 42.9971 219.869 46.3053 217.408C48.3568 215.885 49.2755 213.324 50.4941 211.087C51.7126 208.85 53.7547 206.608 56.3251 206.717C57.1914 206.751 58.0434 207.07 58.9098 207.036C61.4468 206.955 62.9272 203.285 61.1279 201.51C60.7064 201.175 60.3276 200.79 59.9998 200.363C59.5524 199.52 60.0331 198.459 60.8042 197.868C61.6234 197.373 62.5484 197.08 63.5032 197.012C65.669 196.664 67.8395 196.331 70.0053 195.998C72.3996 195.636 75.465 194.408 75.1318 192.037Z" fill="black"/>
<path d="M217.532 220.269C217.151 218.96 216.751 217.661 216.323 216.371C215.895 215.081 215.442 213.805 214.962 212.534C214.448 211.582 213.9 210.63 213.305 209.726C207.669 200.891 199.501 193.965 193.28 185.511C191.257 182.765 189.686 180.494 186.102 179.952C180.804 179.143 178.119 182.132 174.364 177.158C173.35 175.825 171.584 174.583 170.08 175.377C170.465 176.444 170.865 177.505 171.251 178.586C171.349 178.805 171.393 179.045 171.379 179.285C171.298 180.033 170.175 180.237 169.532 179.828C168.89 179.419 168.58 178.652 168.104 178.034C166.433 175.654 162.516 175.363 160.488 177.41C160.441 176.904 160.26 176.42 159.964 176.008C159.668 175.595 159.267 175.269 158.803 175.063C158.594 177.015 156.333 178.462 154.438 177.843C154.134 176.891 155.866 176.696 156.49 175.872C157.113 175.049 156.38 174.011 155.657 173.359C153.703 171.692 151.237 170.745 148.669 170.675C147.051 170.646 145.299 170.946 143.885 170.122C143.067 169.646 142.486 168.851 141.653 168.39C139.873 167.39 137.64 168.309 135.841 169.294C133.38 170.646 130.843 172.345 129.977 175.006C129.11 177.667 131.038 181.194 133.832 180.885C134.537 180.79 135.26 180.456 135.969 180.647C136.964 180.918 137.397 182.075 137.493 183.079C137.588 184.083 137.459 185.159 137.969 186.049C138.478 186.939 139.911 187.382 140.472 186.525C141.791 185.288 141.629 183.193 141.291 181.442C140.953 179.69 140.601 177.691 141.662 176.249C142.724 174.806 145.789 175.263 145.58 177.043C145.451 178.091 144.247 178.852 144.295 179.899C144.342 180.947 145.675 181.551 146.77 181.504C147.865 181.456 148.969 181.075 150.03 181.342C151.092 181.608 151.958 182.979 151.187 183.76C149.854 185.25 146.384 182.694 145.694 184.555C145.499 185.031 145.694 185.569 145.646 186.078C145.518 187.634 143.543 188.206 141.967 188.396C140.391 188.586 138.725 188.729 137.293 188.063C135.86 187.396 134.884 185.54 135.703 184.202C134.903 183.631 133.68 184.202 133.247 185.093C132.814 185.983 132.942 186.997 133.071 187.982C131.4 187.62 129.905 189.015 128.958 190.4C128.011 191.785 127.082 193.418 125.459 193.908C123.836 194.398 121.57 193.737 120.723 195.198C119.614 197.102 122.827 199.515 121.704 201.386C121.056 202.452 119.519 202.424 118.296 202.757C115.068 203.661 113.945 208.331 116.144 210.825C118.343 213.319 122.746 213.177 125.074 210.792C126.697 209.154 127.354 206.855 128.525 204.885C129.696 202.914 131.914 201.148 134.132 201.786C134.985 202.103 135.766 202.588 136.426 203.214C137.502 204.104 138.578 204.994 139.654 205.899C140.344 206.47 141.082 207.189 141.034 208.074C140.972 208.793 140.41 209.35 140.168 210.016C139.497 211.92 142.305 213.762 144.071 212.715C145.837 211.668 146.032 208.983 144.828 207.331C143.157 205.042 139.382 203.899 139.478 201.072C141.405 199.515 144.442 201.148 145.566 203.357C146.689 205.565 146.722 208.155 147.669 210.425C148.617 212.696 151.268 214.733 153.481 213.619C152.905 211.649 152.344 209.697 151.763 207.741C153.191 206.693 154.8 209.745 156.485 209.235C157.513 208.916 157.642 207.455 157.189 206.47C156.737 205.484 155.957 204.661 155.761 203.614C155.443 201.676 157.627 199.944 159.603 200.282C161.578 200.62 162.987 202.462 163.358 204.38C163.43 205.158 163.602 205.923 163.873 206.655C164.61 208.179 166.524 208.64 168.095 209.273C169.665 209.906 171.322 211.482 170.665 213.039C170.36 213.724 169.637 214.371 169.894 215.071C170.137 215.69 171.065 215.961 171.065 216.628C171.065 217.075 170.589 217.375 170.165 217.551C169.109 217.979 167.952 218.122 166.924 218.617C165.896 219.112 164.963 220.079 165.043 221.188C165.172 222.778 167.086 223.539 167.985 224.858C168.761 225.981 168.742 227.438 169.123 228.761H180.88C180.456 227.914 180.037 227.071 179.609 226.224C180.561 225.429 182.065 225.748 183.046 226.543C183.76 227.197 184.384 227.943 184.902 228.761H219.536C218.99 225.883 218.322 223.052 217.532 220.269Z" fill="black"/>
</g>
<path d="M116.568 158.86C116.996 157.951 117.101 156.847 117.848 156.171C118.472 155.609 119.395 155.495 120.066 154.99C121.561 153.857 120.937 151.278 119.352 150.273C115.373 147.76 108.047 150.668 104.596 153.129C100.174 156.295 95.8474 160.103 89.9688 159.731C88.3456 159.631 86.6606 159.189 85.1374 159.755C83.6142 160.322 82.6812 162.578 83.9902 163.535C84.7185 164.063 85.7514 163.915 86.5701 164.291C88.0886 164.986 88.2409 167.147 87.5221 168.642C86.8034 170.137 85.4468 171.231 84.5757 172.64C83.7261 174.016 83.3422 175.628 83.4809 177.239C83.5004 177.798 83.6322 178.348 83.8686 178.856C84.1049 179.364 84.4408 179.819 84.8565 180.195C86.6891 181.623 89.4737 180.399 91.0207 178.662C92.5677 176.924 93.6435 174.682 95.6522 173.492C96.6888 172.952 97.8008 172.57 98.9509 172.36L106.624 170.556C107.843 170.27 109.161 169.918 109.923 168.932C110.875 167.685 110.599 165.9 111.222 164.458C112.241 162.068 115.454 161.212 116.568 158.86Z" fill="#263238"/>
<path d="M158.313 220.16C155.995 219.836 153.748 220.931 151.444 221.345C143.514 222.773 130.176 203.79 124.141 216.585C123.298 213.11 117.591 214.419 115.768 217.503C113.945 220.588 113.559 224.672 110.665 226.814C109.409 227.766 107.809 228.18 106.343 228.766H165.81C164.415 224.962 162.316 220.712 158.313 220.16Z" fill="#263238"/>
<path d="M216.318 216.371C215.89 215.081 215.438 213.805 214.957 212.534C214.443 211.582 213.895 210.63 213.3 209.726C207.665 200.891 199.496 193.965 193.275 185.511C191.252 182.765 189.681 180.494 186.097 179.952C180.799 179.143 178.114 182.132 174.359 177.158C173.345 175.825 171.579 174.583 170.075 175.377C170.46 176.444 170.86 177.505 171.246 178.586C171.344 178.805 171.389 179.045 171.374 179.285C171.293 180.033 170.17 180.237 169.527 179.828C168.885 179.419 168.575 178.652 168.099 178.034C166.429 175.654 162.511 175.363 160.483 177.41C160.437 176.904 160.256 176.42 159.959 176.008C159.663 175.595 159.262 175.269 158.798 175.063C158.589 177.015 156.328 178.462 154.433 177.843C154.129 176.891 155.861 176.696 156.485 175.872C157.109 175.049 156.376 174.011 155.652 173.359C153.698 171.692 151.232 170.745 148.664 170.675C147.046 170.646 145.294 170.946 143.881 170.122C143.062 169.646 142.481 168.851 141.648 168.39C139.868 167.39 137.635 168.309 135.836 169.294C133.375 170.646 130.838 172.345 129.972 175.006C129.105 177.667 131.033 181.194 133.827 180.885C134.532 180.79 135.255 180.456 135.965 180.647C136.959 180.918 137.393 182.075 137.488 183.079C137.583 184.083 137.455 185.159 137.964 186.049C138.473 186.939 139.906 187.382 140.468 186.525C141.786 185.288 141.624 183.193 141.286 181.442C140.948 179.69 140.596 177.691 141.658 176.249C142.719 174.806 145.785 175.263 145.575 177.043C145.447 178.091 144.242 178.852 144.29 179.899C144.337 180.947 145.67 181.551 146.765 181.504C147.86 181.456 148.964 181.075 150.026 181.342C151.087 181.608 151.953 182.979 151.182 183.76C149.85 185.25 146.38 182.694 145.689 184.555C145.494 185.031 145.689 185.569 145.642 186.078C145.513 187.634 143.538 188.206 141.962 188.396C140.387 188.586 138.721 188.729 137.288 188.063C135.855 187.396 134.879 185.54 135.698 184.202C134.898 183.631 133.675 184.202 133.242 185.093C132.809 185.983 132.937 186.997 133.066 187.982C131.395 187.62 129.9 189.015 128.953 190.4C128.006 191.785 127.078 193.418 125.455 193.908C123.831 194.398 121.566 193.737 120.718 195.198C119.609 197.102 122.822 199.515 121.699 201.386C121.052 202.452 119.514 202.424 118.291 202.757C115.063 203.661 113.94 208.331 116.139 210.825C118.338 213.319 122.741 213.177 125.069 210.792C126.692 209.154 127.349 206.855 128.52 204.885C129.691 202.914 131.909 201.148 134.127 201.786C134.98 202.103 135.761 202.588 136.422 203.214C137.497 204.104 138.573 204.994 139.649 205.899C140.339 206.47 141.077 207.189 141.029 208.074C140.967 208.793 140.406 209.35 140.163 210.016C139.492 211.92 142.3 213.762 144.066 212.715C145.832 211.668 146.027 208.983 144.823 207.331C143.152 205.042 139.378 203.899 139.473 201.072C141.401 199.515 144.437 201.148 145.561 203.357C146.684 205.565 146.717 208.155 147.665 210.425C148.612 212.696 151.263 214.733 153.477 213.619C152.901 211.649 152.339 209.697 151.758 207.741C153.186 206.693 154.795 209.745 156.48 209.235C157.508 208.916 157.637 207.455 157.185 206.47C156.733 205.484 155.952 204.661 155.757 203.614C155.438 201.676 157.623 199.944 159.598 200.282C161.573 200.62 162.982 202.462 163.354 204.38C163.425 205.158 163.598 205.923 163.868 206.655C164.606 208.179 166.519 208.64 168.09 209.273C169.661 209.906 171.317 211.482 170.66 213.039C170.356 213.724 169.632 214.371 169.889 215.071C170.132 215.69 171.06 215.961 171.06 216.628C171.06 217.075 170.584 217.375 170.16 217.551C169.104 217.979 167.947 218.122 166.919 218.617C165.891 219.112 164.958 220.079 165.039 221.188C165.167 222.778 167.081 223.539 167.98 224.858C168.756 225.981 168.737 227.438 169.118 228.761H180.88C180.456 227.914 180.037 227.071 179.609 226.224C180.561 225.429 182.065 225.748 183.046 226.543C183.76 227.197 184.384 227.943 184.902 228.761H219.536C218.99 225.905 218.321 223.079 217.527 220.283C217.146 218.96 216.747 217.661 216.318 216.371Z" fill="#263238"/>
<path d="M183.046 226.528C182.065 225.748 180.556 225.415 179.609 226.21C180.037 227.057 180.456 227.899 180.88 228.747H184.902C184.384 227.928 183.76 227.182 183.046 226.528Z" fill="#455A64"/>
<path d="M35.7 223.082C37.3041 219.274 43.0066 219.869 46.3148 217.408C48.3664 215.885 49.285 213.324 50.5036 211.087C51.7222 208.85 53.7642 206.608 56.3346 206.717C57.2009 206.751 58.053 207.07 58.9193 207.036C61.4564 206.955 62.9367 203.285 61.1374 201.51C60.7159 201.175 60.3371 200.79 60.0093 200.363C59.5619 199.52 60.0426 198.459 60.8138 197.868C61.633 197.373 62.5579 197.08 63.5127 197.012C65.6785 196.664 67.849 196.331 70.0148 195.998C72.3948 195.631 75.4746 194.408 75.1414 192.037C74.851 189.991 72.0378 189.067 71.6237 187.035C71.5095 186.559 71.5761 186.002 71.3476 185.545C70.6908 184.241 68.7154 184.764 67.4492 185.464C66.9351 183.56 64.2029 182.713 62.6892 183.955C61.4088 185.002 61.2612 186.844 60.7852 188.42C59.7285 192.228 56.6583 195.122 53.7356 197.807C52.7836 198.697 51.6508 199.649 50.318 199.711C48.9852 199.772 47.5857 198.364 48.195 197.202C48.6139 196.407 49.7706 195.945 49.6563 195.06C49.4992 193.946 47.5381 194.027 47.1526 192.961C47.9237 189.815 51.5698 188.515 54.364 186.83C57.7779 184.781 60.3805 181.617 61.7324 177.872C61.9609 177.281 62.137 176.582 61.8324 176.025C61.4135 175.235 60.3378 175.106 59.4238 175.106C57.2723 175.073 54.5877 175.358 53.8023 177.343C53.3834 178.41 53.688 179.619 53.431 180.728C52.6789 184.031 48.0998 184.398 45.3057 186.368C44.2156 187.13 43.3636 188.196 42.1593 188.782C40.8598 189.405 39.3319 189.358 37.8753 189.467C37.623 189.467 37.3612 189.515 37.1042 189.548C36.222 190.751 35.37 191.987 34.5481 193.256C33.7262 194.525 32.9329 195.803 32.1681 197.088C28.5431 203.223 25.5937 209.733 23.3716 216.504C22.5846 218.881 21.8897 221.294 21.2867 223.744C20.8805 225.394 20.5188 227.062 20.2014 228.747H20.6774C20.9964 227.642 21.2344 226.538 21.4343 225.576C21.4866 225.334 21.5342 225.1 21.5818 224.877C22.115 222.497 22.9004 219.969 24.7806 218.36C26.6608 216.751 29.9547 216.58 31.416 218.57C32.4584 219.998 32.2204 221.954 31.9491 223.701C31.6778 225.448 31.416 227.052 31.1447 228.747H35.7476C35.7143 228.48 35.681 228.213 35.6381 227.956C35.3811 226.319 35.0479 224.605 35.7 223.082Z" fill="#263238"/>
<path d="M31.416 218.57C29.9547 216.566 26.656 216.756 24.7853 218.36C22.9146 219.964 22.1197 222.478 21.5866 224.877C21.539 225.096 21.4914 225.353 21.439 225.576C21.2391 226.528 21.0011 227.642 20.6822 228.747H31.1542C31.4208 227.062 31.6889 225.38 31.9586 223.701C32.2204 221.954 32.4584 219.998 31.416 218.57Z" fill="#455A64"/>
<path d="M96.2567 211.263C96.4804 209.659 94.2194 208.345 92.5201 208.207C91.7109 208.141 90.8732 208.264 90.1068 207.998C88.4456 207.417 87.7792 205.275 86.1608 204.59C84.947 204.08 83.5523 204.532 82.3766 205.123C81.2008 205.713 80.0394 206.46 78.7304 206.551C77.588 206.622 76.3504 206.198 75.346 206.755C74.6035 207.17 74.2132 208.031 73.5277 208.536C72.8131 208.976 71.9868 209.2 71.1477 209.183C70.3127 209.161 69.481 209.296 68.6963 209.583C67.9347 209.93 67.3064 210.73 67.4635 211.549L96.2567 211.263Z" fill="#A3FFAE"/>
<path d="M103.663 199.844C103.811 198.749 102.264 197.849 101.102 197.754C100.546 197.774 99.9902 197.726 99.4459 197.611C98.3083 197.212 97.8561 195.745 96.747 195.274C95.914 194.927 94.962 195.236 94.1576 195.641C93.3531 196.045 92.5534 196.555 91.6586 196.617C90.8732 196.664 90.0259 196.374 89.3404 196.755C88.8311 197.04 88.5646 197.63 88.0933 197.973C87.6063 198.278 87.0399 198.432 86.4654 198.416C85.8931 198.403 85.3233 198.497 84.7851 198.692C84.5187 198.796 84.2929 198.984 84.1412 199.226C83.9895 199.469 83.9198 199.754 83.9426 200.039L103.663 199.844Z" fill="#A3FFAE"/>
<path d="M65.4357 148.374C65.4357 148.374 65.3976 148.407 65.312 148.46L64.9407 148.688L63.5127 149.55L62.4702 150.164L61.2469 150.93C60.3758 151.492 59.3429 152.096 58.2957 152.834L56.6059 153.986C56.0204 154.391 55.435 154.843 54.8114 155.29C53.5643 156.18 52.2934 157.194 50.9368 158.279C48.2759 160.464 45.439 162.982 42.6306 165.8C40.0072 168.478 37.5209 171.287 35.1812 174.216C34.1292 175.582 33.1106 176.863 32.2347 178.124C31.792 178.747 31.3494 179.342 30.9495 179.933L29.8166 181.637C29.0741 182.708 28.4791 183.726 27.9126 184.607L27.1558 185.835L26.5513 186.887L25.7088 188.339C25.6183 188.496 25.5422 188.62 25.485 188.715C25.4279 188.81 25.4041 188.843 25.3994 188.839C25.3946 188.834 25.3994 188.791 25.4612 188.705L25.6659 188.315L26.4656 186.839C26.6465 186.516 26.8416 186.164 27.0511 185.773C27.2605 185.383 27.5271 184.978 27.7936 184.531C28.3315 183.646 28.917 182.627 29.65 181.537L30.7734 179.823C31.1685 179.228 31.6112 178.633 32.0491 178.005C32.9202 176.739 33.9531 175.449 34.9812 174.073C39.6195 168.178 44.9116 162.829 50.7559 158.127C52.1172 157.066 53.3977 156.038 54.6543 155.157C55.2779 154.709 55.8681 154.257 56.4584 153.857L58.1624 152.72C59.2382 151.972 60.2568 151.377 61.1374 150.816C61.5801 150.544 61.9847 150.287 62.3703 150.059L63.427 149.464L64.8978 148.645L65.2834 148.441L65.4357 148.374Z" fill="#263238"/>
<path d="M77.1548 138.368C77.0667 138.417 76.9722 138.452 76.874 138.473L76.0505 138.73C75.6935 138.835 75.2556 138.963 74.751 139.135C74.2465 139.306 73.6658 139.473 73.0374 139.701C71.776 140.134 70.2909 140.706 68.663 141.391C67.0351 142.076 65.2834 142.909 63.4794 143.861C61.6753 144.813 60.0188 145.827 58.5337 146.779C57.0486 147.731 55.7539 148.683 54.6876 149.469C54.1498 149.864 53.6785 150.245 53.2596 150.573C52.8408 150.901 52.4885 151.182 52.1982 151.425L51.527 151.963C51.4547 152.033 51.373 152.092 51.2842 152.139C51.3492 152.061 51.4208 151.99 51.4984 151.925L52.1363 151.349C52.4171 151.101 52.7598 150.797 53.174 150.464C53.5881 150.13 54.0498 149.735 54.602 149.331C55.6539 148.502 56.9534 147.569 58.41 146.589C59.8665 145.608 61.5611 144.609 63.3651 143.642C65.1692 142.676 66.9399 141.867 68.5726 141.177C70.2052 140.487 71.7094 139.949 72.9851 139.539C73.6182 139.316 74.1989 139.154 74.7082 139.001C75.2175 138.849 75.6602 138.725 76.022 138.635L76.8597 138.426C76.9568 138.4 77.0553 138.381 77.1548 138.368Z" fill="#263238"/>
<path d="M18.6211 189.486C17.7476 189.046 16.7843 188.813 15.8061 188.806C14.828 188.798 13.8613 189.017 12.9813 189.444C12.1013 189.871 11.3317 190.496 10.7324 191.269C10.1331 192.042 9.72023 192.943 9.52591 193.901C9.33159 194.86 9.36105 195.851 9.61201 196.796C9.86297 197.742 10.3287 198.617 10.9728 199.353C11.617 200.089 12.4224 200.666 13.3262 201.041C14.23 201.415 15.208 201.575 16.184 201.51C16.66 201.477 17.0598 201.338 17.5834 201.253L23.6144 200.153C23.7938 200.125 23.9638 200.054 24.1105 199.947C24.2572 199.84 24.3764 199.699 24.4582 199.537C24.54 199.375 24.5821 199.195 24.581 199.014C24.58 198.832 24.5358 198.653 24.4521 198.492L21.7865 193.089C21.5862 192.619 21.3605 192.16 21.1106 191.714C20.497 190.76 19.6368 189.99 18.6211 189.486ZM18.2403 196.412C17.9919 196.907 17.6022 197.317 17.1207 197.59C16.6391 197.863 16.0873 197.988 15.5351 197.947C14.9828 197.907 14.455 197.704 14.0183 197.363C13.5816 197.023 13.2557 196.561 13.0818 196.035C12.9079 195.509 12.8938 194.944 13.0413 194.41C13.1889 193.876 13.4914 193.399 13.9107 193.037C14.3299 192.675 14.847 192.446 15.3966 192.378C15.9461 192.31 16.5034 192.407 16.998 192.656C17.6595 192.991 18.1616 193.574 18.3944 194.278C18.6272 194.981 18.5718 195.749 18.2403 196.412Z" fill="#A3FFAE"/>
<path d="M173.497 147.289C173.983 146.44 174.268 145.492 174.327 144.516C174.387 143.54 174.221 142.563 173.842 141.662C173.464 140.761 172.882 139.959 172.143 139.319C171.404 138.679 170.527 138.218 169.581 137.972C168.635 137.726 167.644 137.701 166.687 137.9C165.73 138.098 164.831 138.515 164.061 139.118C163.291 139.72 162.671 140.492 162.247 141.373C161.824 142.255 161.61 143.222 161.621 144.199V144.228C161.621 144.704 161.745 145.113 161.802 145.656L162.578 151.735C162.6 151.911 162.663 152.079 162.762 152.227C162.861 152.374 162.992 152.497 163.146 152.585C163.3 152.673 163.473 152.724 163.65 152.735C163.827 152.745 164.004 152.714 164.168 152.644L169.708 150.264C170.195 150.089 170.672 149.887 171.136 149.659C172.12 149.093 172.935 148.274 173.497 147.289ZM166.6 146.537C166.118 146.263 165.728 145.852 165.48 145.357C165.232 144.861 165.136 144.303 165.205 143.753C165.274 143.203 165.505 142.686 165.869 142.268C166.232 141.849 166.712 141.548 167.246 141.402C167.781 141.257 168.347 141.273 168.873 141.449C169.398 141.626 169.859 141.954 170.198 142.393C170.537 142.832 170.737 143.361 170.775 143.914C170.812 144.467 170.684 145.019 170.408 145.499C170.04 146.141 169.432 146.611 168.719 146.805C168.005 147 167.243 146.903 166.6 146.537Z" fill="#A3FFAE"/>
<path d="M78.6876 144.176C78.3532 143.686 77.9105 143.28 77.3937 142.989C76.8769 142.698 76.3 142.531 75.7079 142.499C75.1158 142.468 74.5244 142.573 73.9797 142.808C73.435 143.042 72.9516 143.399 72.5673 143.85C72.1829 144.302 71.9079 144.836 71.7636 145.411C71.6192 145.986 71.6095 146.587 71.7351 147.166C71.8607 147.746 72.1183 148.288 72.4878 148.752C72.8574 149.216 73.3289 149.588 73.8657 149.84C74.1275 149.964 74.3798 150.007 74.6844 150.116L78.2068 151.297C78.3091 151.33 78.4177 151.34 78.5244 151.325C78.6311 151.31 78.7328 151.271 78.8217 151.21C78.9106 151.149 78.9843 151.069 79.037 150.975C79.0897 150.881 79.1199 150.776 79.1255 150.668L79.2921 147.017C79.3235 146.709 79.3378 146.399 79.3349 146.089C79.2933 145.405 79.0698 144.745 78.6876 144.176ZM76.4551 147.736C76.1788 147.926 75.8525 148.029 75.5173 148.033C75.1822 148.038 74.8534 147.942 74.5724 147.76C74.2914 147.577 74.0709 147.315 73.9388 147.007C73.8066 146.699 73.7688 146.359 73.83 146.029C73.8913 145.7 74.0488 145.396 74.2828 145.156C74.5168 144.916 74.8167 144.751 75.1445 144.681C75.4724 144.612 75.8135 144.641 76.1247 144.765C76.436 144.89 76.7033 145.104 76.893 145.38C77.019 145.563 77.1076 145.77 77.1538 145.988C77.1999 146.205 77.2028 146.43 77.1621 146.649C77.1214 146.867 77.0381 147.076 76.9168 147.263C76.7955 147.449 76.6386 147.61 76.4551 147.736Z" fill="#A3FFAE"/>
<path d="M127.52 202.062C127.521 201.47 127.384 200.885 127.122 200.354C126.86 199.823 126.479 199.359 126.008 198.999C125.538 198.639 124.99 198.392 124.409 198.278C123.828 198.163 123.228 198.184 122.656 198.339C122.084 198.494 121.556 198.779 121.112 199.171C120.668 199.564 120.32 200.053 120.096 200.601C119.872 201.15 119.777 201.742 119.819 202.333C119.861 202.924 120.038 203.498 120.338 204.009C120.485 204.261 120.671 204.437 120.861 204.699L123.098 207.665C123.163 207.751 123.246 207.822 123.342 207.87C123.439 207.919 123.545 207.944 123.653 207.944C123.761 207.944 123.867 207.919 123.963 207.87C124.06 207.822 124.143 207.751 124.207 207.665L126.411 204.747C126.611 204.509 126.799 204.261 126.973 204.004C127.325 203.417 127.514 202.747 127.52 202.062ZM123.665 203.728C123.329 203.729 122.999 203.63 122.719 203.444C122.439 203.258 122.221 202.993 122.091 202.682C121.962 202.372 121.928 202.03 121.993 201.7C122.058 201.37 122.219 201.067 122.457 200.829C122.694 200.591 122.997 200.428 123.327 200.362C123.657 200.296 123.998 200.33 124.309 200.458C124.62 200.587 124.886 200.805 125.073 201.084C125.26 201.364 125.359 201.692 125.359 202.029C125.359 202.479 125.181 202.91 124.863 203.229C124.546 203.547 124.115 203.727 123.665 203.728Z" fill="#A3FFAE"/>
<path d="M215.39 189.7C215.845 189.322 216.207 188.843 216.448 188.302C216.688 187.761 216.801 187.172 216.777 186.581C216.753 185.989 216.594 185.411 216.31 184.891C216.027 184.371 215.628 183.923 215.144 183.583C214.659 183.242 214.103 183.017 213.518 182.926C212.933 182.835 212.335 182.88 211.77 183.057C211.205 183.234 210.689 183.54 210.261 183.949C209.833 184.358 209.505 184.86 209.302 185.416C209.202 185.692 209.183 185.949 209.102 186.259L208.255 189.876C208.229 189.981 208.229 190.091 208.253 190.196C208.278 190.301 208.326 190.399 208.395 190.482C208.464 190.565 208.551 190.631 208.65 190.675C208.749 190.718 208.856 190.738 208.964 190.733L212.615 190.562C212.925 190.563 213.235 190.549 213.543 190.519C214.221 190.416 214.859 190.133 215.39 189.7ZM211.634 187.796C211.419 187.539 211.285 187.223 211.249 186.89C211.214 186.556 211.278 186.219 211.434 185.922C211.59 185.625 211.83 185.381 212.125 185.221C212.42 185.06 212.756 184.991 213.09 185.022C213.424 185.053 213.741 185.182 214.002 185.393C214.262 185.605 214.454 185.889 214.553 186.209C214.653 186.53 214.654 186.873 214.558 187.194C214.462 187.516 214.273 187.801 214.014 188.015C213.67 188.302 213.227 188.441 212.781 188.401C212.335 188.362 211.923 188.148 211.634 187.806V187.796Z" fill="#A3FFAE"/>
<path d="M112.841 61.1898L134.546 54.84L137.483 62.2227L112.284 66.3639L112.841 61.1898Z" fill="#FFBE9D"/>
<path d="M112.841 61.1898C112.841 61.1898 108.652 61.4707 108.233 61.7372C107.814 62.0038 103.473 62.2132 103.473 62.8415C103.473 63.4699 103.678 63.1367 104.368 63.1795C105.058 63.2223 106.705 62.9701 106.724 63.2652C106.743 63.5603 101.65 64.3695 101.488 64.5885C101.326 64.8074 100.883 65.0216 101.517 65.2025C101.517 65.2025 100.731 65.5833 100.898 66.0498C100.949 66.2752 101.076 66.4765 101.256 66.6208C101.437 66.7652 101.661 66.8441 101.893 66.8447C102.369 66.8019 106.134 66.6638 106.134 66.6638C106.134 66.6638 101.969 66.8733 101.988 67.2874C102.007 67.7015 101.859 67.6539 102.373 67.9538C102.887 68.2537 105.629 68.2537 105.629 68.2537L108.818 67.6111C108.818 67.6111 106.581 68.7059 106.305 69.1438C106.029 69.5817 105.877 70.3861 106.305 70.6622C106.733 70.9383 106.919 70.5432 107.257 70.1862C107.595 69.8292 110.337 68.5012 110.832 68.1347C111.327 67.7681 113.774 65.4215 113.774 65.4215L112.841 61.1898Z" fill="#FFBE9D"/>
<path d="M154.586 26.0848C154.731 25.9136 154.918 25.7825 155.128 25.704C155.815 25.4021 156.591 25.3732 157.299 25.6231C156.901 25.0674 156.613 24.4404 156.452 23.7762C156.374 23.4418 156.383 23.0929 156.48 22.7634C156.577 22.434 156.757 22.1351 157.004 21.896C157.278 21.7047 157.589 21.5732 157.917 21.5101C158.245 21.4469 158.583 21.4535 158.908 21.5295C159.839 21.6484 160.704 22.0757 161.364 22.7433C161.687 23.0814 161.924 23.4923 162.055 23.9414C162.186 24.3904 162.207 24.8644 162.116 25.3232L160.212 26.8131C159.661 27.5198 158.931 28.0669 158.099 28.3982C157.92 28.4962 157.718 28.5439 157.514 28.5364C157.311 28.5289 157.113 28.4663 156.942 28.3553C156.827 28.2279 156.754 28.0683 156.733 27.8981C156.711 27.7278 156.743 27.5551 156.823 27.4033C156.993 27.0996 157.225 26.8352 157.504 26.6275C156.791 26.9521 156.01 27.0959 155.228 27.0463C155.094 27.0529 154.959 27.0284 154.835 26.9748C154.712 26.9211 154.602 26.8398 154.514 26.7369C154.463 26.6326 154.443 26.516 154.456 26.4005C154.468 26.2851 154.513 26.1756 154.586 26.0848Z" fill="#263238"/>
<path d="M156.637 21.9341C156.637 21.9579 156.98 21.9674 157.504 22.1102C158.184 22.3011 158.81 22.6483 159.331 23.1241C159.85 23.6042 160.25 24.197 160.502 24.8568C160.693 25.3661 160.731 25.704 160.755 25.704C160.767 25.6236 160.767 25.5417 160.755 25.4613C160.723 25.246 160.673 25.0341 160.602 24.8282C160.369 24.1394 159.969 23.5194 159.436 23.0242C158.897 22.5345 158.242 22.1905 157.532 22.0246C157.321 21.9741 157.106 21.9406 156.89 21.9246C156.806 21.9133 156.72 21.9166 156.637 21.9341Z" fill="#455A64"/>
<path d="M160.141 26.4942C160.21 26.3277 160.31 26.1759 160.436 26.0467C160.857 25.4582 161.444 25.0077 162.121 24.752C162.181 24.7292 162.245 24.7199 162.31 24.7249C162.374 24.7298 162.436 24.7488 162.492 24.7806C162.654 24.9043 162.597 25.1661 162.464 25.3232C162.312 25.4653 162.177 25.6251 162.064 25.7992L161.04 26.8655C160.947 26.9981 160.814 27.0967 160.66 27.1463C160.584 27.1711 160.502 27.175 160.424 27.1574C160.346 27.1398 160.275 27.1014 160.217 27.0463C160.151 26.9723 160.108 26.8802 160.095 26.7819C160.081 26.6835 160.097 26.5834 160.141 26.4942Z" fill="#455A64"/>
<path d="M156.128 35.8857C156.397 34.2267 156.81 32.5943 157.361 31.0067C157.915 29.4123 158.857 27.9809 160.103 26.8417C160.293 26.6751 161.731 25.6374 161.94 25.7802C162.149 25.923 160.959 26.9702 160.964 27.1511C160.95 28.9009 160.402 30.6046 159.393 32.0348C158.451 33.4357 157.356 34.7272 156.128 35.8857Z" fill="#263238"/>
<path d="M152.191 43.0875L159.079 30.1879C160.983 26.4323 164.763 24.4141 168.466 26.4228L168.856 26.6655C170.449 27.6541 171.61 29.206 172.111 31.0124C172.611 32.8188 172.412 34.7472 171.555 36.414C169.875 39.6746 167.971 43.2732 166.914 44.9297C164.739 48.3378 160.974 46.7385 160.974 46.7385C160.974 46.7385 159.617 49.1185 159.036 50.1276C159.036 50.1276 158.508 50.4227 155.228 48.6091C151.949 46.7956 152.191 43.0875 152.191 43.0875Z" fill="#FFBE9D"/>
<path d="M160.974 46.7384C159.39 45.7498 158.123 44.3274 157.323 42.6401C157.323 42.6401 156.847 45.815 160.479 47.6333L160.974 46.7384Z" fill="#EB996E"/>
<path d="M169.166 38.4846C169.089 38.6139 168.965 38.7078 168.82 38.7461C168.674 38.7844 168.52 38.764 168.39 38.6893C168.324 38.6557 168.266 38.6093 168.218 38.5527C168.171 38.4962 168.135 38.4307 168.113 38.3601C168.091 38.2896 168.084 38.2154 168.092 38.1419C168.099 38.0684 168.121 37.9972 168.157 37.9324C168.234 37.8028 168.359 37.7088 168.505 37.6705C168.651 37.6322 168.806 37.6528 168.937 37.7278C169.003 37.7618 169.06 37.8085 169.107 37.8652C169.154 37.9219 169.19 37.9875 169.211 38.058C169.232 38.1285 169.239 38.2026 169.231 38.2759C169.224 38.3491 169.201 38.4201 169.166 38.4846Z" fill="#263238"/>
<path d="M170.013 37.2565C169.913 37.2565 169.713 36.7805 169.185 36.4473C168.656 36.1141 168.104 36.1475 168.085 36.0475C168.066 35.9475 168.209 35.9237 168.456 35.9047C168.791 35.8834 169.125 35.9684 169.408 36.1475C169.683 36.3179 169.897 36.5713 170.018 36.871C170.08 37.0947 170.061 37.2423 170.013 37.2565Z" fill="#263238"/>
<path d="M164.182 35.7381C164.144 35.8022 164.094 35.8582 164.035 35.9029C163.975 35.9476 163.907 35.9802 163.835 35.9988C163.763 36.0173 163.688 36.0215 163.615 36.0111C163.541 36.0007 163.47 35.9758 163.406 35.938C163.34 35.9049 163.282 35.8589 163.235 35.8028C163.187 35.7467 163.152 35.6816 163.13 35.6114C163.108 35.5413 163.101 35.4674 163.108 35.3943C163.115 35.3212 163.137 35.2503 163.173 35.1859C163.25 35.0563 163.375 34.9623 163.521 34.924C163.667 34.8857 163.822 34.9063 163.953 34.9812C164.019 35.0152 164.077 35.062 164.124 35.1187C164.171 35.1754 164.206 35.241 164.227 35.3115C164.248 35.382 164.255 35.4561 164.248 35.5294C164.24 35.6026 164.218 35.6736 164.182 35.7381Z" fill="#263238"/>
<path d="M164.658 34.353C164.553 34.353 164.353 33.877 163.825 33.5485C163.297 33.2201 162.744 33.2439 162.73 33.1439C162.716 33.044 162.854 33.0202 163.097 33.0011C163.424 32.9848 163.748 33.0696 164.025 33.2439C164.3 33.414 164.513 33.6675 164.634 33.9674C164.72 34.1911 164.696 34.3434 164.658 34.353Z" fill="#263238"/>
<path d="M163.977 39.6746C164.309 39.7583 164.629 39.8847 164.929 40.0507C165.072 40.1221 165.22 40.1744 165.296 40.0983C165.4 39.9615 165.455 39.794 165.453 39.6223C165.529 39.2193 165.61 38.7956 165.696 38.3514C165.865 37.2518 166.123 36.1678 166.467 35.1098C166.384 36.2194 166.213 37.3208 165.957 38.4037C165.867 38.8464 165.781 39.27 165.696 39.6746C165.679 39.8893 165.589 40.0914 165.439 40.2458C165.39 40.2812 165.333 40.3047 165.274 40.3146C165.214 40.3245 165.154 40.3206 165.096 40.303C165.008 40.2798 164.925 40.2429 164.848 40.1935C164.536 40.0597 164.243 39.8853 163.977 39.6746Z" fill="#263238"/>
<path d="M165.686 33.163C165.534 33.2534 165.101 32.806 164.477 32.4156C163.853 32.0253 163.268 31.8159 163.268 31.6398C163.268 31.5541 163.458 31.4922 163.744 31.516C164.118 31.5532 164.477 31.6806 164.791 31.8873C165.111 32.0844 165.379 32.3554 165.572 32.6774C165.734 32.9297 165.757 33.1154 165.686 33.163Z" fill="#263238"/>
<path d="M170.751 36.176C170.57 36.2284 170.227 35.838 169.723 35.5144C169.218 35.1907 168.737 35.0098 168.713 34.8242C168.713 34.7337 168.851 34.6576 169.113 34.6623C169.455 34.6858 169.784 34.8009 170.065 34.9955C170.356 35.1807 170.59 35.4426 170.741 35.7524C170.855 35.9761 170.836 36.1332 170.751 36.176Z" fill="#263238"/>
<path d="M157.784 32.9059C157.742 32.844 155.857 30.7449 154.452 33.1391C153.048 35.5334 155.761 36.4283 155.804 36.3617C155.847 36.295 157.784 32.9059 157.784 32.9059Z" fill="#FFBE9D"/>
<path d="M155.614 35.0336C155.614 35.0336 155.557 35.0336 155.466 35.0336C155.343 35.0183 155.23 34.9551 155.152 34.8575C155.054 34.6706 155.008 34.4608 155.018 34.2499C155.028 34.0391 155.094 33.8347 155.209 33.6579C155.324 33.4468 155.487 33.2658 155.685 33.1296C155.749 33.0715 155.825 33.0284 155.907 33.0037C155.989 32.979 156.076 32.9732 156.161 32.9868C156.216 33.0028 156.264 33.037 156.297 33.0837C156.33 33.1304 156.346 33.1868 156.342 33.2438C156.342 33.3295 156.29 33.3676 156.304 33.3819C156.318 33.3961 156.376 33.3819 156.414 33.2629C156.437 33.1967 156.437 33.1244 156.414 33.0582C156.374 32.9715 156.305 32.9021 156.218 32.863C156.109 32.8256 155.991 32.817 155.877 32.8378C155.763 32.8586 155.656 32.9083 155.566 32.982C155.344 33.1296 155.162 33.3309 155.038 33.5675C154.9 33.7723 154.827 34.0134 154.827 34.2601C154.827 34.5068 154.9 34.7479 155.038 34.9527C155.092 35.0079 155.158 35.0506 155.23 35.0777C155.302 35.1049 155.38 35.1158 155.457 35.1097C155.581 35.0859 155.623 35.0383 155.614 35.0336Z" fill="#EB996E"/>
<path d="M172.222 31.6064C172.731 31.6064 172.279 29.7024 171.565 28.7123C170.494 27.2367 168.514 25.5802 166.962 25.2042C165.101 24.7282 163.316 24.7948 161.683 25.7992C160.06 26.846 158.745 28.3067 157.875 30.0308C157.57 30.5338 157.406 31.109 157.399 31.6968C157.437 32.4156 157.875 33.1249 157.447 33.8341C157.277 34.0924 157.217 34.4074 157.28 34.7099C157.456 35.4287 158.232 35.2954 158.741 34.9908C159.803 34.3482 160.498 33.2581 161.155 32.2014C161.665 31.4763 162.052 30.6722 162.302 29.8214C162.411 29.3454 162.435 28.8694 162.568 28.3934C162.623 28.1591 162.727 27.9392 162.874 27.7487C163.021 27.5581 163.208 27.4014 163.42 27.2891C163.52 27.253 163.621 27.2244 163.725 27.2034C164.228 27.1016 164.75 27.1361 165.235 27.3035C165.72 27.4709 166.152 27.765 166.486 28.1554C167.571 29.4025 169.48 31.4303 170.341 31.3113C170.934 31.2706 171.513 31.1086 172.041 30.8353L172.222 31.6064Z" fill="#263238"/>
<path d="M167.276 24.9519C168.066 25.0908 168.822 25.3853 169.497 25.8183C170.173 26.2514 170.756 26.8144 171.212 27.4747C171.463 27.8194 171.641 28.2116 171.735 28.6274C171.829 29.0431 171.838 29.4737 171.76 29.8928C171.669 30.3097 171.433 30.6813 171.096 30.9423C170.758 31.2034 170.339 31.3374 169.913 31.3208H169.851C168.628 31.0876 168.038 30.5735 167.214 29.6358C166.524 28.8504 166.057 27.8888 165.362 27.1034C164.613 26.2691 163.632 25.6773 162.544 25.4041C164.054 24.8378 165.687 24.6818 167.276 24.9519Z" fill="#263238"/>
<path d="M163.02 25.1995C163.02 25.1995 163.154 25.1995 163.392 25.2423C163.728 25.2994 164.05 25.4172 164.344 25.5898C164.778 25.8436 165.158 26.18 165.462 26.5799C165.837 27.0733 166.166 27.599 166.448 28.1507C166.734 28.7067 167.06 29.2412 167.423 29.75C167.728 30.167 168.105 30.525 168.537 30.8067C168.828 30.9944 169.151 31.1267 169.489 31.1971C169.58 31.2167 169.673 31.2279 169.765 31.2304C169.832 31.2304 169.865 31.2304 169.865 31.2304C169.408 31.1667 168.969 31.0043 168.58 30.7544C168.166 30.4691 167.805 30.113 167.514 29.7024C167.161 29.1947 166.843 28.6635 166.562 28.1126C166.28 27.5528 165.943 27.0219 165.558 26.5275C165.239 26.1214 164.843 25.7831 164.391 25.5327C164.086 25.3624 163.749 25.2555 163.401 25.2185C163.308 25.2097 163.214 25.2097 163.12 25.2185L163.02 25.1995Z" fill="#455A64"/>
<path d="M164.482 24.99C164.901 25.0501 165.304 25.1942 165.667 25.4137C166.054 25.6591 166.396 25.97 166.676 26.3324C167.016 26.7756 167.306 27.2544 167.542 27.7604C167.804 28.2982 168.018 28.8314 168.28 29.2931C168.496 29.7091 168.754 30.1016 169.051 30.464C169.253 30.7085 169.485 30.9261 169.742 31.1114C169.811 31.1613 169.884 31.2059 169.961 31.2447C170.008 31.2732 170.037 31.2875 170.041 31.2828C169.699 31.0314 169.39 30.7371 169.123 30.4069C168.841 30.0429 168.596 29.6524 168.39 29.2407C168.147 28.7647 167.914 28.2459 167.657 27.7032C167.421 27.181 167.124 26.6888 166.771 26.2372C166.477 25.8685 166.119 25.5557 165.715 25.3137C165.441 25.1525 165.142 25.0413 164.829 24.9853C164.744 24.9759 164.658 24.9759 164.572 24.9853C164.51 24.9805 164.482 24.9853 164.482 24.99Z" fill="#455A64"/>
<path d="M160.241 26.656C160.207 26.7216 160.184 26.7924 160.174 26.8654C160.124 27.0544 160.089 27.247 160.069 27.4414C159.924 28.737 160.212 30.0441 160.888 31.159C160.987 31.3266 161.1 31.4858 161.226 31.635C161.312 31.7444 161.364 31.8016 161.374 31.7968C161.383 31.792 161.207 31.5398 160.969 31.1066C160.348 29.9829 160.069 28.7025 160.164 27.4224C160.198 26.9368 160.264 26.656 160.241 26.656Z" fill="#455A64"/>
<path d="M158.984 28.1602C158.941 28.2135 158.908 28.275 158.889 28.341C158.826 28.5144 158.786 28.6952 158.77 28.8789C158.729 29.4918 158.866 30.1035 159.165 30.6401C159.463 31.1652 159.833 31.6459 160.264 32.0681C160.428 32.2556 160.612 32.4248 160.812 32.5727C160.668 32.3718 160.509 32.1824 160.336 32.0062C159.933 31.571 159.58 31.0921 159.284 30.5782C158.998 30.0616 158.854 29.4787 158.865 28.8884C158.887 28.6431 158.927 28.3998 158.984 28.1602Z" fill="#455A64"/>
<path d="M170.541 27.4176C170.563 27.6218 170.602 27.8239 170.656 28.0221C170.76 28.5001 170.8 28.99 170.775 29.4787C170.741 29.964 170.576 30.4311 170.299 30.8305C170.169 30.9857 170.031 31.1335 169.884 31.2732C169.938 31.2567 169.988 31.2309 170.032 31.197C170.158 31.1097 170.272 31.0056 170.37 30.8876C170.673 30.4897 170.852 30.0111 170.884 29.512C170.916 29.0098 170.861 28.5058 170.722 28.0221C170.693 27.8125 170.632 27.6085 170.541 27.4176Z" fill="#455A64"/>
<path d="M171.56 29.512C171.43 29.9243 171.222 30.3075 170.946 30.6401C170.64 30.9468 170.278 31.1924 169.88 31.3637C170.012 31.3653 170.143 31.3343 170.26 31.2732C170.558 31.1538 170.825 30.9683 171.041 30.7306C171.259 30.4927 171.421 30.21 171.517 29.9023C171.564 29.7779 171.579 29.6437 171.56 29.512Z" fill="#455A64"/>
<path d="M154.443 35.5144C154.472 35.5144 154.386 35.6953 154.333 35.9618C154.3 36.1106 154.317 36.2663 154.381 36.4045C154.427 36.4798 154.49 36.5429 154.566 36.5885C154.641 36.6341 154.726 36.6608 154.814 36.6663C154.903 36.6695 154.992 36.6533 155.074 36.6188C155.156 36.5843 155.23 36.5323 155.29 36.4664C155.401 36.3587 155.474 36.2186 155.5 36.0666C155.552 35.8 155.5 35.6191 155.523 35.5906C155.547 35.562 155.657 35.7476 155.638 36.0666C155.626 36.2547 155.552 36.4336 155.428 36.5759C155.35 36.6657 155.252 36.7367 155.143 36.7837C155.033 36.8306 154.914 36.8523 154.795 36.8472C154.674 36.8402 154.556 36.8014 154.454 36.7345C154.352 36.6677 154.269 36.5752 154.214 36.4664C154.139 36.2916 154.13 36.0949 154.191 35.9142C154.291 35.6382 154.429 35.5049 154.443 35.5144Z" fill="#263238"/>
<path d="M154.019 34.4053C154.019 34.4338 153.91 34.4719 153.853 34.629C153.82 34.7131 153.82 34.8067 153.853 34.8908C153.877 34.9379 153.913 34.9787 153.955 35.01C153.998 35.0414 154.048 35.0625 154.1 35.0717C154.202 35.0874 154.307 35.0694 154.398 35.0204C154.489 34.9715 154.562 34.8942 154.605 34.8004C154.681 34.6433 154.681 34.5243 154.71 34.5195C154.738 34.5148 154.795 34.6433 154.738 34.8527C154.701 34.9769 154.626 35.0866 154.524 35.1669C154.457 35.2185 154.38 35.2543 154.297 35.2716C154.215 35.2889 154.13 35.2873 154.048 35.2668C153.973 35.2539 153.901 35.223 153.841 35.1768C153.78 35.1305 153.731 35.0703 153.698 35.0012C153.665 34.9321 153.65 34.8562 153.653 34.7798C153.656 34.7034 153.677 34.6288 153.715 34.5624C153.853 34.3624 154.029 34.3767 154.019 34.4053Z" fill="#263238"/>
<path d="M154.786 32.7298C154.786 32.7583 154.667 32.7298 154.51 32.7774C154.415 32.8054 154.332 32.8649 154.275 32.9461C154.218 33.0273 154.19 33.1253 154.196 33.2242C154.203 33.3232 154.242 33.4171 154.308 33.4907C154.375 33.5643 154.464 33.6132 154.562 33.6294C154.719 33.6627 154.829 33.6294 154.838 33.6294C154.848 33.6294 154.757 33.7532 154.548 33.7532C154.423 33.7527 154.302 33.7089 154.205 33.6294C154.144 33.579 154.095 33.5166 154.06 33.4461C154.025 33.3757 154.004 33.2987 154 33.2201C153.989 33.079 154.032 32.9389 154.121 32.8284C154.209 32.7179 154.336 32.6452 154.476 32.6251C154.7 32.6155 154.8 32.7107 154.786 32.7298Z" fill="#263238"/>
<path d="M162.649 39.5318C162.73 39.5794 162.406 40.103 162.621 40.7551C162.835 41.4073 163.435 41.7071 163.392 41.7738C163.349 41.8404 163.201 41.7738 162.963 41.6595C162.658 41.4687 162.429 41.1775 162.316 40.8361C162.205 40.5065 162.225 40.1465 162.373 39.8317C162.478 39.6032 162.616 39.508 162.649 39.5318Z" fill="#263238"/>
<path d="M134.637 129.472L131.714 137.393C131.714 137.393 140.101 141.591 140.02 143.219L123.127 141.372L127.092 128.253L134.637 129.472Z" fill="#455A64"/>
<path d="M126.573 136.093C126.405 136.126 126.255 136.22 126.151 136.355C126.047 136.491 125.995 136.66 126.007 136.831C126.033 136.999 126.122 137.151 126.257 137.256C126.391 137.36 126.561 137.409 126.73 137.393C126.908 137.359 127.068 137.261 127.178 137.117C127.288 136.972 127.34 136.793 127.325 136.612C127.28 136.439 127.17 136.289 127.017 136.195C126.865 136.101 126.682 136.07 126.507 136.107" fill="#263238"/>
<path d="M123.127 141.372L123.532 140.034L139.468 142.291C139.468 142.291 140.182 142.7 140.039 143.243L123.127 141.372Z" fill="#263238"/>
<path d="M131.728 137.502C131.728 137.583 131.3 137.578 130.862 137.797C130.424 138.016 130.176 138.34 130.1 138.302C130.024 138.264 130.205 137.797 130.738 137.535C131.271 137.274 131.752 137.426 131.728 137.502Z" fill="#263238"/>
<path d="M133.532 138.473C133.532 138.559 133.171 138.659 132.852 138.978C132.533 139.297 132.414 139.654 132.328 139.644C132.242 139.635 132.247 139.168 132.652 138.768C133.056 138.368 133.537 138.397 133.532 138.473Z" fill="#263238"/>
<path d="M134.318 140.71C134.242 140.71 134.17 140.296 134.432 139.868C134.694 139.439 135.098 139.301 135.127 139.392C135.155 139.482 134.889 139.682 134.679 140.034C134.47 140.387 134.399 140.71 134.318 140.71Z" fill="#263238"/>
<path d="M132.376 135.731C132.328 135.803 131.976 135.612 131.509 135.551C131.043 135.489 130.657 135.551 130.629 135.479C130.6 135.408 131.005 135.184 131.552 135.265C132.1 135.346 132.428 135.66 132.376 135.731Z" fill="#263238"/>
<path d="M81.5388 112.845L72.828 114.502C72.828 114.502 73.0517 123.879 71.5809 124.569L65.2929 108.78L78.7256 106.115L81.5388 112.845Z" fill="#455A64"/>
<path d="M71.5666 109.352C71.4603 109.217 71.3083 109.127 71.1397 109.098C70.971 109.069 70.7976 109.104 70.6527 109.194C70.5146 109.296 70.4211 109.446 70.3918 109.615C70.3625 109.784 70.3997 109.957 70.4956 110.099C70.6078 110.237 70.7665 110.329 70.9419 110.358C71.1172 110.387 71.2971 110.35 71.4476 110.256C71.5785 110.136 71.658 109.97 71.6695 109.792C71.681 109.615 71.6237 109.44 71.5095 109.304" fill="#263238"/>
<path d="M65.2929 108.78L66.64 108.528L72.114 123.646C72.114 123.646 72.0854 124.474 71.5618 124.598L65.2929 108.78Z" fill="#263238"/>
<path d="M72.7423 114.564C72.6614 114.592 72.4758 114.221 72.0759 113.94C71.6761 113.659 71.2715 113.583 71.2762 113.502C71.281 113.421 71.7522 113.355 72.2282 113.702C72.7042 114.05 72.828 114.549 72.7423 114.564Z" fill="#263238"/>
<path d="M72.728 116.62C72.6614 116.668 72.3948 116.382 71.9664 116.254C71.538 116.125 71.162 116.182 71.1334 116.106C71.1049 116.03 71.5238 115.801 72.0569 115.977C72.59 116.154 72.7994 116.582 72.728 116.62Z" fill="#263238"/>
<path d="M71.1239 118.357C71.0763 118.291 71.419 118.034 71.9236 118.062C72.4282 118.091 72.7328 118.386 72.6804 118.443C72.6281 118.5 72.3187 118.367 71.9046 118.348C71.4904 118.329 71.162 118.429 71.1239 118.357Z" fill="#263238"/>
<path d="M74.6082 114.307C74.5226 114.307 74.5273 113.897 74.3655 113.455C74.2036 113.012 73.9561 112.707 74.0132 112.645C74.0704 112.584 74.4512 112.836 74.6368 113.359C74.8224 113.883 74.6796 114.326 74.6082 114.307Z" fill="#263238"/>
<path d="M119.343 60.5805C119.343 60.5805 113.631 63.408 110.841 67.7967C108.052 72.1854 100.122 93.7244 100.122 93.7244C100.122 93.7244 96.8565 95.7807 96.3519 97.3087C95.8474 98.8366 74.0466 105.948 74.0466 105.948L76.1838 114.611C76.1838 114.611 102.554 108.899 104.311 107.29C106.067 105.682 121.775 87.1746 121.775 87.1746L133.38 107.167C133.38 107.167 129.348 115.777 128.372 118.91C127.397 122.042 123.784 132.647 123.784 132.647L133.28 133.318C133.28 133.318 141.967 114.564 144.161 110.946C146.356 107.328 146.065 104.996 145.27 102.878C144.476 100.76 133.637 74.5178 133.637 74.5178L137.664 70.8764L124.165 57.596L119.343 60.5805Z" fill="#263238"/>
<path d="M101.636 102.773C101.482 102.447 101.368 102.103 101.298 101.75C101.089 100.909 100.954 100.053 100.893 99.1889C100.797 98.0447 100.848 96.8929 101.045 95.7617H101.117C101.079 95.914 101.055 95.9854 101.041 95.9854C101.026 95.9854 101.041 95.9045 101.041 95.7474H101.117C101.042 96.8807 101.042 98.0176 101.117 99.1508C101.179 100.004 101.293 100.853 101.459 101.693C101.546 102.048 101.605 102.409 101.636 102.773Z" fill="#455A64"/>
<path d="M101.279 102.464C100.698 101.787 100.217 101.03 99.8505 100.217C99.4111 99.4341 99.0902 98.5904 98.8985 97.7133C98.9604 97.6895 99.3745 98.8081 100.036 100.117C100.698 101.426 101.336 102.426 101.279 102.464Z" fill="#455A64"/>
<path d="M139.573 106.9C138.796 106.696 137.996 106.593 137.193 106.595C136.402 106.671 135.624 106.85 134.879 107.129C135.056 106.963 135.265 106.837 135.493 106.757C136.031 106.534 136.602 106.403 137.183 106.372C137.765 106.344 138.347 106.42 138.902 106.595C139.145 106.648 139.374 106.751 139.573 106.9Z" fill="#455A64"/>
<path d="M138.073 107.7C138.045 107.762 137.259 107.419 136.231 107.314C135.203 107.21 134.361 107.371 134.327 107.314C134.94 107.108 135.591 107.036 136.234 107.105C136.877 107.173 137.498 107.379 138.054 107.709L138.073 107.7Z" fill="#455A64"/>
<path d="M126.283 81.5864C126.087 81.9499 125.858 82.2941 125.597 82.6146C125.15 83.2286 124.503 84.0426 123.755 84.9517C123.008 85.8609 122.299 86.6273 121.775 87.1747C121.505 87.4887 121.206 87.7757 120.88 88.0315C121.111 87.6922 121.37 87.3737 121.656 87.0795L123.56 84.8185L125.464 82.5241C125.711 82.1896 125.985 81.876 126.283 81.5864Z" fill="#455A64"/>
<path d="M101.421 96.1758C101.458 96.0695 101.502 95.9661 101.555 95.8664C101.64 95.6665 101.793 95.3904 101.959 94.9906C102.311 94.229 102.787 93.1151 103.321 91.7157C103.854 90.3162 104.434 88.6312 105.044 86.7463C105.653 84.8613 106.3 82.7812 107.057 80.6201C107.761 78.5826 108.591 76.5906 109.542 74.6559C110.32 73.0749 111.238 71.5664 112.284 70.1481C112.987 69.1913 113.768 68.2949 114.621 67.4683C114.916 67.1684 115.173 66.9685 115.34 66.8209C115.422 66.7437 115.509 66.6721 115.601 66.6067C115.532 66.6964 115.454 66.7793 115.368 66.8542C115.216 67.0113 114.968 67.2255 114.683 67.5301C113.858 68.3769 113.098 69.2838 112.407 70.2433C111.389 71.6662 110.492 73.1725 109.728 74.7463C108.791 76.6777 107.969 78.6629 107.267 80.6915C106.51 82.8478 105.839 84.9279 105.239 86.8081C104.639 88.6883 104.025 90.3781 103.468 91.7728C102.911 93.1675 102.416 94.2766 102.04 95.0287C101.859 95.4095 101.697 95.6903 101.593 95.8855C101.547 95.9885 101.489 96.0859 101.421 96.1758Z" fill="#455A64"/>
<path d="M100.436 96.7756C100.436 96.8422 100.027 96.9612 99.584 97.2516C99.1413 97.5419 98.8604 97.8846 98.8081 97.8466C98.7557 97.8085 98.9747 97.3706 99.4602 97.0659C99.5958 96.9557 99.7517 96.8734 99.9192 96.8235C100.087 96.7737 100.262 96.7574 100.436 96.7756Z" fill="#455A64"/>
<path d="M98.4749 98.532C98.4101 98.5851 98.338 98.6284 98.2607 98.6606L97.6228 98.9795C97.0707 99.2556 96.2567 99.6364 95.2428 100.089C93.2246 101.002 90.4019 102.178 87.2222 103.316C84.0426 104.453 81.1056 105.329 78.9684 105.905C77.9022 106.191 77.0358 106.415 76.4313 106.553L75.7364 106.705C75.6552 106.726 75.5724 106.74 75.4888 106.748C75.564 106.709 75.644 106.68 75.7268 106.662L76.4075 106.467L78.9303 105.753C81.0533 105.144 83.9712 104.239 87.1461 103.106C90.321 101.974 93.1484 100.817 95.1762 99.9458L97.5562 98.8986L98.2131 98.6177C98.2968 98.5792 98.3846 98.5505 98.4749 98.532Z" fill="#455A64"/>
<path d="M119 71.1667C118.819 71.4144 118.589 71.6218 118.324 71.776C117.703 72.1869 116.993 72.4461 116.253 72.5329C115.513 72.6238 114.762 72.5407 114.059 72.2901C113.777 72.206 113.514 72.0651 113.288 71.876C113.288 71.8427 113.612 72.0093 114.14 72.1616C114.824 72.3658 115.543 72.4289 116.252 72.347C116.962 72.2652 117.647 72.0402 118.267 71.6856C118.502 71.4998 118.747 71.3266 119 71.1667Z" fill="#455A64"/>
<path d="M126.102 132.742C126.114 132.65 126.133 132.56 126.159 132.471C126.207 132.271 126.273 132.019 126.354 131.704C126.53 131.043 126.802 130.086 127.154 128.91C127.858 126.559 128.915 123.336 130.243 119.838C131.571 116.339 132.937 113.226 133.975 111.003C134.494 109.889 134.927 108.995 135.236 108.385C135.389 108.095 135.508 107.866 135.598 107.681C135.637 107.597 135.685 107.517 135.741 107.443C135.716 107.533 135.682 107.621 135.641 107.705L135.317 108.423C135.022 109.071 134.618 109.97 134.118 111.065C133.118 113.302 131.785 116.42 130.453 119.914C129.12 123.408 128.044 126.621 127.301 128.958C126.944 130.105 126.649 131.048 126.44 131.728C126.34 132.038 126.264 132.285 126.202 132.48C126.179 132.571 126.145 132.659 126.102 132.742Z" fill="#455A64"/>
<path d="M158.032 46.4052L152.91 41.4548C152.91 41.4548 147.965 41.3787 145.294 42.226C142.624 43.0732 115.083 62.694 115.083 62.694C118.767 64.1648 122.004 67.454 125.05 71.4952C127.62 74.5464 128.487 79.0779 132.228 80.4583C133.023 80.7486 135.86 79.9109 135.86 79.9109L136.512 76.9597L158.917 55.5778C158.917 55.5778 159.936 49.4326 158.032 46.4052Z" fill="#A3FFAE"/>
<g opacity="0.3">
<path d="M141.71 62.4417C138.791 62.5442 135.929 61.6231 133.618 59.838C137.078 58.0387 140.077 55.4873 143.048 52.955C145.294 51.051 149.012 47.8666 151.982 45.8531C145.923 46.6052 137.264 49.4088 131.99 52.5171C127.459 55.2017 123.303 58.7384 118.234 60.1807L117.477 60.1331C117.558 61.6182 118.743 62.8796 120.128 63.427C121.547 63.9042 123.065 64.0091 124.536 63.7316C125.998 63.4557 127.474 63.2619 128.958 63.1509C131.224 63.0986 133.428 63.7792 135.655 64.1696C137.883 64.5599 140.315 64.617 142.257 63.4556C142.453 63.3366 142.657 63.1795 142.671 62.951C142.714 62.5369 142.129 62.4226 141.71 62.4417Z" fill="black"/>
</g>
<path d="M153.272 59.3667C144.781 61.059 136.012 60.7543 127.658 58.4766L127.882 61.4516C132.204 62.4607 136.564 63.4699 141.001 63.646C145.437 63.8221 150.016 63.0986 153.853 60.8519C153.629 60.3568 153.439 59.8618 153.272 59.3667Z" fill="#455A64"/>
<g opacity="0.3">
<path d="M149.374 62.4798C149.211 58.5102 149.323 54.5341 149.707 50.5798L149.797 50.1799C148.921 51.1319 148.66 52.4552 148.493 53.7261C147.978 57.5975 147.994 61.5211 148.541 65.3881L149.493 64.7503C149.502 64.5742 149.393 63.2747 149.374 62.4798Z" fill="black"/>
</g>
<path d="M156.847 44.468C154.586 42.564 150.283 43.5493 147.531 44.6584L145.504 48.8662C148.212 48.0189 152.796 45.0963 155.4 46.2292C158.003 47.362 158.922 49.7325 159.536 52.5124C159.845 51.0535 159.758 49.5386 159.285 48.1244C158.813 46.7102 157.971 45.4479 156.847 44.468Z" fill="#263238"/>
<path d="M147.608 37.8372C145.228 36.157 142.191 36.3569 139.368 36.6615C133.899 37.2518 130.243 39.8888 124.612 41.8023C121.107 42.9487 118.178 45.4019 116.434 48.652C114.321 52.7265 114.616 56.4917 117.353 60.2045L118.305 61.1184C119.278 62.0674 120.507 62.7124 121.841 62.9744C123.175 63.2365 124.556 63.1043 125.816 62.594C133.075 59.619 137.669 54.8257 145.094 50.218C147.265 48.8709 149.478 47.362 150.116 44.6345C150.416 43.3804 150.337 42.0657 149.891 40.8561C149.445 39.6465 148.65 38.5961 147.608 37.8372Z" fill="#455A64"/>
<path d="M149.583 40.3791C149.582 40.5134 149.567 40.6473 149.54 40.7789C149.46 41.155 149.337 41.5207 149.174 41.869C148.513 43.1269 147.577 44.2201 146.437 45.0677C142.8 47.9503 139 50.6204 135.055 53.0645C132.752 54.4925 130.5 55.7872 128.43 56.9058C127.392 57.4675 126.402 57.9816 125.464 58.4576C124.603 58.9112 123.716 59.3149 122.808 59.6666C121.489 60.2091 120.042 60.3643 118.638 60.114C118.262 60.0331 117.896 59.9085 117.548 59.7428C117.458 59.6998 117.37 59.6505 117.286 59.5952C117.255 59.5805 117.226 59.5612 117.201 59.5381C117.666 59.7537 118.155 59.9135 118.657 60.0141C120.042 60.224 121.458 60.0443 122.746 59.4952C123.644 59.1355 124.522 58.7255 125.374 58.2672C126.302 57.7912 127.278 57.2676 128.32 56.7011C130.381 55.573 132.604 54.283 134.927 52.8455C138.869 50.4045 142.682 47.7608 146.351 44.9249C147.484 44.1028 148.425 43.0458 149.112 41.8261C149.327 41.3648 149.486 40.8789 149.583 40.3791Z" fill="#263238"/>
<path d="M134.108 53.2787C134.051 53.312 132.29 50.6512 130.181 47.3334C128.073 44.0157 126.402 41.2882 126.459 41.2502C126.516 41.2121 128.277 43.8777 130.391 47.2002C132.504 50.5226 134.165 53.2406 134.108 53.2787Z" fill="#263238"/>
<path d="M132.257 50.3561C132.082 50.4431 131.932 50.5744 131.823 50.7369C131.716 50.9355 131.596 51.1278 131.466 51.3128C131.37 51.4353 131.239 51.5264 131.09 51.5746C131.003 51.5982 130.91 51.6002 130.822 51.5803C130.733 51.5604 130.65 51.5192 130.581 51.4604C130.503 51.3952 130.448 51.3068 130.424 51.2081C130.416 51.1563 130.419 51.1035 130.432 51.0528C130.445 51.0021 130.468 50.9546 130.5 50.913C130.608 50.7973 130.75 50.7189 130.905 50.6893L131.552 50.5132C131.923 50.418 132.157 50.3751 132.166 50.4084C132.176 50.4418 131.961 50.5417 131.604 50.6798L130.971 50.9082C130.724 50.9749 130.562 51.1272 130.738 51.27C130.777 51.3024 130.824 51.3256 130.873 51.3379C130.922 51.3503 130.974 51.3515 131.024 51.3414C131.129 51.3103 131.222 51.2471 131.29 51.1605C131.447 50.9939 131.552 50.7845 131.685 50.6322C131.784 50.5012 131.92 50.4032 132.076 50.3513C132.19 50.318 132.257 50.3418 132.257 50.3561Z" fill="#263238"/>
<path d="M142.286 146.917C142.286 147.572 142.092 148.212 141.727 148.757C141.363 149.301 140.846 149.725 140.24 149.975C139.635 150.225 138.969 150.29 138.327 150.161C137.685 150.032 137.095 149.716 136.633 149.252C136.171 148.787 135.857 148.197 135.731 147.554C135.605 146.911 135.673 146.246 135.925 145.641C136.178 145.037 136.604 144.522 137.15 144.16C137.696 143.798 138.337 143.606 138.992 143.609C139.867 143.613 140.705 143.963 141.322 144.583C141.939 145.203 142.286 146.042 142.286 146.917Z" fill="#263238"/>
<path d="M141.957 146.917C141.934 146.917 141.957 146.651 141.819 146.203C141.645 145.568 141.263 145.008 140.734 144.614C140.373 144.345 139.954 144.165 139.511 144.085C138.976 143.987 138.424 144.042 137.919 144.243C137.414 144.445 136.976 144.784 136.655 145.223C136.293 145.714 136.098 146.308 136.098 146.917C136.098 147.527 136.293 148.121 136.655 148.612C136.988 149.073 137.452 149.423 137.988 149.616C138.469 149.796 138.991 149.842 139.497 149.75C139.94 149.67 140.358 149.489 140.72 149.221C141.248 148.827 141.63 148.267 141.805 147.631C141.929 147.184 141.919 146.917 141.943 146.917C141.95 146.981 141.95 147.045 141.943 147.108C141.945 147.292 141.925 147.476 141.881 147.655C141.731 148.327 141.35 148.925 140.806 149.345C140.43 149.64 139.989 149.841 139.52 149.931C139.076 150.018 138.617 150.005 138.178 149.894C137.739 149.783 137.329 149.576 136.979 149.288C136.63 149 136.348 148.638 136.154 148.228C135.961 147.818 135.861 147.371 135.861 146.917C135.861 146.464 135.961 146.017 136.154 145.607C136.348 145.197 136.63 144.835 136.979 144.547C137.329 144.259 137.739 144.052 138.178 143.941C138.617 143.83 139.076 143.817 139.52 143.904C139.989 143.994 140.43 144.195 140.806 144.49C141.35 144.91 141.731 145.508 141.881 146.18C141.925 146.359 141.946 146.543 141.943 146.727C141.955 146.79 141.96 146.854 141.957 146.917Z" fill="#455A64"/>
<path d="M97.2135 148.065C97.2135 148.719 97.0193 149.359 96.6556 149.903C96.2919 150.447 95.7749 150.871 95.1702 151.121C94.5654 151.372 93.9 151.437 93.2581 151.309C92.6163 151.181 92.0268 150.865 91.5644 150.402C91.1019 149.939 90.7872 149.349 90.6601 148.707C90.533 148.065 90.5992 147.4 90.8503 146.795C91.1014 146.191 91.5262 145.675 92.0708 145.312C92.6155 144.949 93.2555 144.755 93.91 144.756C94.7866 144.758 95.6268 145.107 96.2462 145.727C96.8656 146.347 97.2135 147.188 97.2135 148.065Z" fill="#263238"/>
<path d="M96.885 148.065C96.885 148.065 96.885 147.798 96.7518 147.346C96.5723 146.712 96.1893 146.155 95.6617 145.761C95.2752 145.473 94.8229 145.285 94.3457 145.216C93.8686 145.147 93.3818 145.199 92.9295 145.366C92.3956 145.559 91.9326 145.909 91.6014 146.37C91.2396 146.861 91.0444 147.455 91.0444 148.065C91.0444 148.674 91.2396 149.268 91.6014 149.759C91.8274 150.069 92.1125 150.33 92.4404 150.529C92.7683 150.727 93.1323 150.859 93.5114 150.916C93.8904 150.972 94.277 150.953 94.6486 150.859C95.0202 150.765 95.3694 150.598 95.676 150.368C96.2039 149.972 96.5869 149.414 96.766 148.779C96.885 148.331 96.8755 148.065 96.8993 148.065C96.9231 148.065 96.8993 148.131 96.8993 148.255C96.8969 148.439 96.8745 148.623 96.8327 148.802C96.6824 149.474 96.3018 150.072 95.7569 150.492C95.3826 150.786 94.9437 150.987 94.4765 151.078C93.8694 151.197 93.2405 151.13 92.6723 150.885C92.1042 150.64 91.6235 150.229 91.2934 149.705C90.9633 149.182 90.7992 148.571 90.8228 147.953C90.8463 147.335 91.0564 146.738 91.4253 146.242C91.7822 145.748 92.2801 145.375 92.8533 145.171C93.3723 144.986 93.9314 144.945 94.4717 145.052C95.0464 145.159 95.5774 145.431 96 145.835C96.4226 146.239 96.7185 146.758 96.8517 147.327C96.8938 147.506 96.9162 147.69 96.9184 147.874C96.8993 147.998 96.8946 148.065 96.885 148.065Z" fill="#455A64"/>
<path d="M149.402 146.18C149.378 146.261 148.479 146.065 146.884 145.656L145.561 145.304L143.971 144.937C142.833 144.68 141.548 144.337 140.096 144.08L137.835 143.638C137.05 143.481 136.222 143.376 135.37 143.233C133.67 142.933 131.833 142.757 129.91 142.514C125.723 142.104 121.517 141.929 117.31 141.991C113.097 142.096 108.894 142.443 104.72 143.028C102.816 143.338 100.979 143.6 99.2888 143.98C98.4463 144.157 97.6228 144.295 96.8422 144.48L94.6002 145.018C93.1722 145.332 91.8918 145.727 90.7637 146.027L89.1929 146.46L87.8839 146.865C86.3083 147.341 85.4182 147.57 85.3896 147.489C85.3611 147.408 86.1893 147.013 87.7268 146.408L89.0072 145.899C89.4832 145.723 90.0021 145.556 90.559 145.366C91.6776 144.999 92.939 144.542 94.367 144.171L96.609 143.547C97.3896 143.338 98.2178 143.171 99.0699 142.971C100.764 142.557 102.607 142.253 104.539 141.91C112.962 140.548 121.534 140.373 130.005 141.391C131.952 141.653 133.813 141.867 135.512 142.234C136.369 142.395 137.202 142.529 137.992 142.71L140.258 143.238C141.686 143.552 142.99 143.961 144.123 144.28C144.685 144.447 145.213 144.595 145.694 144.756L146.994 145.232C148.583 145.751 149.431 146.099 149.402 146.18Z" fill="#A3FFAE"/>
<path d="M165.124 88.0267C165.21 88.2694 165.729 89.3452 165.729 89.3452L167.661 93.7577L167.852 99.9172C167.733 99.9734 167.602 100.001 167.47 99.9983C167.338 99.9955 167.209 99.9621 167.092 99.9007C166.975 99.8393 166.874 99.7517 166.797 99.6447C166.72 99.5377 166.669 99.4142 166.648 99.2841C166.481 98.3197 166.384 97.3445 166.357 96.3662L163.435 100.112C163.435 100.112 162.483 99.4126 163.078 98.5225L161.864 99.1746C161.555 98.7473 161.428 98.2149 161.512 97.6942C161.692 96.9184 163.787 94.6954 163.787 94.6954L160.131 94.5479C160.131 94.5479 159.503 94.0719 160.107 93.6768C161.011 93.282 161.945 92.9636 162.901 92.7248C162.522 92.6329 162.167 92.462 161.859 92.2233C161.55 91.9846 161.296 91.6835 161.112 91.3396C160.747 90.5586 160.597 89.6942 160.679 88.8359L165.124 88.0267Z" fill="#FFBE9D"/>
<path d="M151.159 56.882C151.159 56.882 153.562 73.3088 153.586 74.3846C153.681 75.5664 153.84 76.7422 154.062 77.907C154.062 77.907 153.991 77.7927 154.886 79.335C155.781 80.8772 161.459 90.916 161.459 90.916L165.743 89.3357C165.743 89.3357 161.316 76.2505 160.926 74.256C160.536 72.2616 161.226 62.2894 160.179 58.1244C159.132 53.9594 151.159 56.882 151.159 56.882Z" fill="#FFBE9D"/>
<path d="M153.239 46.1292C153.049 46.1781 152.867 46.2517 152.696 46.3482C151.863 46.8242 149.516 48.514 149.364 53.631C149.155 60.0617 149.493 64.736 149.493 64.736L161.393 63.784C161.335 63.7079 160.66 44.3204 153.239 46.1292Z" fill="#A3FFAE"/>
<path d="M161.388 63.784C161.314 63.8068 161.237 63.8196 161.159 63.8221L160.498 63.8983L158.022 64.1315L149.493 64.8598H149.374V64.736C149.293 63.408 149.231 61.9752 149.202 60.4949C149.15 58.2577 149.169 56.1252 149.259 54.1879C149.35 52.2506 149.564 50.4798 150.211 49.1232C150.67 48.0376 151.451 47.1188 152.449 46.491C152.722 46.3277 153.012 46.1951 153.315 46.0959C153.419 46.0626 153.526 46.0387 153.634 46.0245C153.239 46.1689 152.859 46.3523 152.501 46.5719C151.546 47.216 150.804 48.1287 150.368 49.1946C149.778 50.5274 149.573 52.2696 149.507 54.1974C149.44 56.1252 149.416 58.2577 149.469 60.4901C149.497 61.9657 149.554 63.3937 149.635 64.7218L149.502 64.6123L158.032 63.9744L160.517 63.8126L161.183 63.7793C161.251 63.7732 161.32 63.7748 161.388 63.784Z" fill="#263238"/>
<path d="M229.375 228.747C229.375 228.813 179.957 228.87 119.005 228.87C58.053 228.87 8.62512 228.813 8.62512 228.747C8.62512 228.68 58.0339 228.623 119.005 228.623C179.976 228.623 229.375 228.675 229.375 228.747Z" fill="#263238"/>
</svg>
