<svg width="189" height="31" viewBox="0 0 189 31" fill="none" xmlns="http://www.w3.org/2000/svg">
<path d="M0.64 30V0.799999H10.04C13 0.799999 15.36 1.48 17.12 2.84C18.88 4.17333 19.76 5.98667 19.76 8.28C19.76 9.56 19.4533 10.68 18.84 11.64C18.2533 12.6 17.4533 13.3467 16.44 13.88C15.4533 14.4133 14.3733 14.68 13.2 14.68V14.8C14.5067 14.7733 15.6933 15.0133 16.76 15.52C17.8533 16.0267 18.7333 16.7867 19.4 17.8C20.0667 18.8133 20.4 20.0667 20.4 21.56C20.4 23.2667 19.9867 24.76 19.16 26.04C18.36 27.2933 17.2133 28.2667 15.72 28.96C14.2267 29.6533 12.4533 30 10.4 30H0.64ZM6.44 25.16H10.16C11.4667 25.16 12.4933 24.8133 13.24 24.12C13.9867 23.4267 14.36 22.4667 14.36 21.24C14.36 20.0133 13.9867 19.0533 13.24 18.36C12.4933 17.64 11.4667 17.28 10.16 17.28H6.44V25.16ZM6.44 12.56H9.96C11.1333 12.56 12.0533 12.2533 12.72 11.64C13.3867 11 13.72 10.1467 13.72 9.08C13.72 7.98667 13.3867 7.14667 12.72 6.56C12.0533 5.94667 11.1333 5.64 9.96 5.64H6.44V12.56ZM33.9844 30.4C31.0244 30.4 28.7044 29.6 27.0244 28C25.371 26.4 24.5444 24.2133 24.5444 21.44V8H30.5444V21.4C30.5444 22.6267 30.8377 23.5733 31.4244 24.24C32.011 24.88 32.8644 25.2 33.9844 25.2C35.0777 25.2 35.9177 24.88 36.5044 24.24C37.1177 23.5733 37.4244 22.6267 37.4244 21.4V8H43.4244V21.44C43.4244 24.24 42.5844 26.44 40.9044 28.04C39.2244 29.6133 36.9177 30.4 33.9844 30.4ZM57.0488 30.4C55.2354 30.4 53.6488 30.12 52.2888 29.56C50.9288 28.9733 49.8621 28.1733 49.0888 27.16C48.3421 26.1467 47.9688 24.96 47.9688 23.6H53.9688C53.9688 24.24 54.2488 24.76 54.8088 25.16C55.3954 25.5333 56.1421 25.72 57.0488 25.72H58.8088C59.9021 25.72 60.7288 25.52 61.2888 25.12C61.8754 24.72 62.1688 24.16 62.1688 23.44C62.1688 22.7733 61.9154 22.2667 61.4088 21.92C60.9021 21.5467 60.1154 21.2933 59.0488 21.16L56.4888 20.84C53.7421 20.4933 51.7421 19.8267 50.4888 18.84C49.2354 17.8533 48.6087 16.3467 48.6087 14.32C48.6087 12.1867 49.3421 10.5333 50.8088 9.36C52.2754 8.18667 54.4221 7.6 57.2488 7.6H58.7688C61.4621 7.6 63.6088 8.18667 65.2088 9.36C66.8088 10.5333 67.6088 12.1067 67.6088 14.08H61.6088C61.6088 13.5467 61.3421 13.12 60.8088 12.8C60.3021 12.4533 59.6221 12.28 58.7688 12.28H57.2488C56.2621 12.28 55.5421 12.4533 55.0888 12.8C54.6354 13.12 54.4088 13.6133 54.4088 14.28C54.4088 14.8933 54.6088 15.36 55.0088 15.68C55.4354 16 56.1021 16.2267 57.0088 16.36L59.7688 16.72C62.5421 17.0667 64.5954 17.76 65.9288 18.8C67.2888 19.84 67.9688 21.3867 67.9688 23.44C67.9688 25.68 67.1954 27.4 65.6488 28.6C64.1021 29.8 61.8221 30.4 58.8088 30.4H57.0488ZM82.0731 30.4C80.1265 30.4 78.4198 30.04 76.9531 29.32C75.4865 28.5733 74.3531 27.5467 73.5531 26.24C72.7531 24.9067 72.3531 23.36 72.3531 21.6V16.4C72.3531 14.6133 72.7531 13.0667 73.5531 11.76C74.3531 10.4533 75.4865 9.44 76.9531 8.72C78.4198 7.97333 80.1265 7.6 82.0731 7.6C84.9798 7.6 87.2998 8.33333 89.0331 9.8C90.7665 11.2667 91.6865 13.2667 91.7931 15.8H85.7931C85.7131 14.8667 85.3398 14.1333 84.6731 13.6C84.0331 13.0667 83.1665 12.8 82.0731 12.8C80.8731 12.8 79.9531 13.1067 79.3131 13.72C78.6731 14.3333 78.3531 15.2267 78.3531 16.4V21.6C78.3531 22.7467 78.6731 23.64 79.3131 24.28C79.9531 24.8933 80.8731 25.2 82.0731 25.2C83.1665 25.2 84.0331 24.9467 84.6731 24.44C85.3398 23.9067 85.7131 23.16 85.7931 22.2H91.7931C91.6865 24.7333 90.7665 26.7333 89.0331 28.2C87.2998 29.6667 84.9798 30.4 82.0731 30.4ZM103.098 30.4C100.884 30.4 99.1242 29.8 97.8175 28.6C96.5375 27.4 95.8975 25.7733 95.8975 23.72C95.8975 21.5067 96.6575 19.8133 98.1775 18.64C99.7242 17.44 101.938 16.84 104.818 16.84H109.378V15.2C109.378 14.3467 109.071 13.6667 108.458 13.16C107.871 12.6533 107.071 12.4 106.058 12.4C105.124 12.4 104.351 12.6133 103.738 13.04C103.124 13.4667 102.751 14.0533 102.618 14.8H96.8175C97.0575 12.5867 98.0175 10.84 99.6975 9.56C101.404 8.25333 103.591 7.6 106.258 7.6C109.058 7.6 111.271 8.29333 112.898 9.68C114.551 11.04 115.378 12.88 115.378 15.2V30H109.578V26.4H108.618L109.618 25C109.618 26.6533 109.018 27.9733 107.818 28.96C106.644 29.92 105.071 30.4 103.098 30.4ZM105.338 26C106.511 26 107.471 25.6933 108.218 25.08C108.991 24.44 109.378 23.6133 109.378 22.6V20.24H104.938C104.031 20.24 103.298 20.5067 102.738 21.04C102.178 21.5467 101.898 22.2267 101.898 23.08C101.898 23.9867 102.204 24.7067 102.818 25.24C103.431 25.7467 104.271 26 105.338 26Z" fill="#606060"/>
<path d="M130.082 30.4C128.135 30.4 126.429 30.04 124.962 29.32C123.495 28.5733 122.349 27.5467 121.522 26.24C120.722 24.9067 120.322 23.36 120.322 21.6V9.2C120.322 7.41333 120.722 5.86667 121.522 4.56C122.349 3.25333 123.495 2.24 124.962 1.52C126.429 0.773333 128.135 0.4 130.082 0.4C132.055 0.4 133.762 0.773333 135.202 1.52C136.669 2.24 137.802 3.25333 138.602 4.56C139.429 5.86667 139.842 7.41333 139.842 9.2H133.842C133.842 8.02667 133.509 7.13333 132.842 6.52C132.202 5.90667 131.282 5.6 130.082 5.6C128.882 5.6 127.949 5.90667 127.282 6.52C126.642 7.13333 126.322 8.02667 126.322 9.2V21.6C126.322 22.7467 126.642 23.64 127.282 24.28C127.949 24.8933 128.882 25.2 130.082 25.2C131.282 25.2 132.202 24.8933 132.842 24.28C133.509 23.64 133.842 22.7467 133.842 21.6H139.842C139.842 23.36 139.429 24.9067 138.602 26.24C137.802 27.5467 136.669 28.5733 135.202 29.32C133.762 30.04 132.055 30.4 130.082 30.4ZM145.106 30V0.799999H163.106V5.92H150.986V12.48H161.706V17.6H150.986V24.88H163.106V30H145.106ZM168.531 30V0.799999H178.491C180.544 0.799999 182.331 1.18667 183.851 1.96C185.397 2.73333 186.584 3.81333 187.411 5.2C188.264 6.58667 188.691 8.21333 188.691 10.08C188.691 11.92 188.264 13.5467 187.411 14.96C186.557 16.3467 185.371 17.4267 183.851 18.2C182.331 18.9733 180.544 19.36 178.491 19.36H174.531V30H168.531ZM174.531 13.96H178.491C179.771 13.96 180.784 13.6133 181.531 12.92C182.304 12.2 182.691 11.2533 182.691 10.08C182.691 8.90666 182.304 7.97333 181.531 7.28C180.784 6.56 179.771 6.2 178.491 6.2H174.531V13.96Z" fill="#A3FFAE"/>
</svg>
