<svg width="495" height="415" viewBox="0 0 495 415" fill="none" xmlns="http://www.w3.org/2000/svg">
<path d="M48.576 342.248C52.544 343.144 55.68 345.128 57.984 348.2C60.352 351.208 61.536 354.664 61.536 358.568C61.536 364.328 59.552 368.84 55.584 372.104C51.616 375.368 46.048 377 38.88 377H5.37601V309.32H37.824C44.736 309.32 50.144 310.856 54.048 313.928C58.016 317 60 321.32 60 326.888C60 330.856 58.944 334.184 56.832 336.872C54.784 339.496 52.032 341.288 48.576 342.248ZM24.192 336.2H33.696C38.432 336.2 40.8 334.248 40.8 330.344C40.8 326.312 38.432 324.296 33.696 324.296H24.192V336.2ZM35.136 361.832C39.872 361.832 42.24 359.848 42.24 355.88C42.24 353.832 41.6 352.264 40.32 351.176C39.104 350.088 37.344 349.544 35.04 349.544H24.192V361.832H35.136ZM124.886 323.144V377H105.974V369.32C104.374 371.752 102.166 373.736 99.3503 375.272C96.5343 376.744 93.3023 377.48 89.6543 377.48C83.3823 377.48 78.4223 375.432 74.7743 371.336C71.1903 367.176 69.3983 361.544 69.3983 354.44V323.144H88.1183V352.04C88.1183 355.112 88.9183 357.544 90.5183 359.336C92.1823 361.064 94.3583 361.928 97.0463 361.928C99.7983 361.928 101.974 361.064 103.574 359.336C105.174 357.544 105.974 355.112 105.974 352.04V323.144H124.886ZM158.539 377.672C153.675 377.672 149.323 376.872 145.483 375.272C141.707 373.608 138.699 371.368 136.459 368.552C134.283 365.672 133.067 362.44 132.811 358.856H151.051C151.307 360.584 152.107 361.928 153.451 362.888C154.795 363.848 156.459 364.328 158.443 364.328C159.979 364.328 161.195 364.008 162.091 363.368C162.987 362.728 163.435 361.896 163.435 360.872C163.435 359.528 162.699 358.536 161.227 357.896C159.755 357.256 157.323 356.552 153.931 355.784C150.091 355.016 146.891 354.152 144.331 353.192C141.771 352.232 139.531 350.664 137.611 348.488C135.755 346.312 134.827 343.368 134.827 339.656C134.827 336.456 135.691 333.576 137.419 331.016C139.147 328.392 141.675 326.312 145.003 324.776C148.395 323.24 152.459 322.472 157.195 322.472C164.235 322.472 169.771 324.2 173.803 327.656C177.835 331.112 180.171 335.656 180.811 341.288H163.819C163.499 339.56 162.731 338.248 161.515 337.352C160.363 336.392 158.795 335.912 156.811 335.912C155.275 335.912 154.091 336.2 153.259 336.776C152.491 337.352 152.107 338.152 152.107 339.176C152.107 340.456 152.843 341.448 154.315 342.152C155.787 342.792 158.155 343.464 161.419 344.168C165.323 345 168.555 345.928 171.115 346.952C173.739 347.976 176.011 349.64 177.931 351.944C179.915 354.184 180.907 357.256 180.907 361.16C180.907 364.296 179.979 367.112 178.123 369.608C176.331 372.104 173.739 374.088 170.347 375.56C167.019 376.968 163.083 377.672 158.539 377.672ZM187.085 350.024C187.085 344.456 188.237 339.592 190.541 335.432C192.845 331.272 196.045 328.072 200.141 325.832C204.301 323.592 209.037 322.472 214.349 322.472C221.197 322.472 226.957 324.36 231.629 328.136C236.301 331.848 239.309 337.064 240.653 343.784H220.685C219.533 340.264 217.293 338.504 213.965 338.504C211.597 338.504 209.709 339.496 208.301 341.48C206.957 343.4 206.285 346.248 206.285 350.024C206.285 353.8 206.957 356.68 208.301 358.664C209.709 360.648 211.597 361.64 213.965 361.64C217.357 361.64 219.597 359.88 220.685 356.36H240.653C239.309 363.016 236.301 368.232 231.629 372.008C226.957 375.784 221.197 377.672 214.349 377.672C209.037 377.672 204.301 376.552 200.141 374.312C196.045 372.072 192.845 368.872 190.541 364.712C188.237 360.552 187.085 355.656 187.085 350.024ZM245.398 350.024C245.398 344.456 246.39 339.592 248.374 335.432C250.422 331.272 253.174 328.072 256.63 325.832C260.15 323.592 264.054 322.472 268.342 322.472C272.054 322.472 275.254 323.208 277.942 324.68C280.63 326.152 282.71 328.136 284.182 330.632V323.144H302.998V377H284.182V369.512C282.71 372.008 280.598 373.992 277.846 375.464C275.158 376.936 271.99 377.672 268.342 377.672C264.054 377.672 260.15 376.552 256.63 374.312C253.174 372.072 250.422 368.872 248.374 364.712C246.39 360.488 245.398 355.592 245.398 350.024ZM284.182 350.024C284.182 346.568 283.222 343.848 281.302 341.864C279.446 339.88 277.142 338.888 274.39 338.888C271.574 338.888 269.238 339.88 267.382 341.864C265.526 343.784 264.598 346.504 264.598 350.024C264.598 353.48 265.526 356.232 267.382 358.28C269.238 360.264 271.574 361.256 274.39 361.256C277.142 361.256 279.446 360.264 281.302 358.28C283.222 356.296 284.182 353.544 284.182 350.024ZM311.416 343.016C311.416 336.36 312.792 330.44 315.544 325.256C318.36 320.008 322.328 315.944 327.448 313.064C332.568 310.12 338.456 308.648 345.112 308.648C353.56 308.648 360.664 310.92 366.424 315.464C372.184 319.944 375.896 326.056 377.56 333.8H357.304C356.088 331.24 354.392 329.288 352.216 327.944C350.104 326.6 347.64 325.928 344.824 325.928C340.472 325.928 336.984 327.496 334.36 330.632C331.8 333.704 330.52 337.832 330.52 343.016C330.52 348.264 331.8 352.456 334.36 355.592C336.984 358.664 340.472 360.2 344.824 360.2C347.64 360.2 350.104 359.528 352.216 358.184C354.392 356.84 356.088 354.888 357.304 352.328H377.56C375.896 360.072 372.184 366.216 366.424 370.76C360.664 375.24 353.56 377.48 345.112 377.48C338.456 377.48 332.568 376.04 327.448 373.16C322.328 370.216 318.36 366.152 315.544 360.968C312.792 355.72 311.416 349.736 311.416 343.016ZM405.286 324.392V335.432H426.886V349.736H405.286V361.928H429.766V377H386.47V309.32H429.766V324.392H405.286ZM492.536 331.88C492.536 335.976 491.576 339.72 489.656 343.112C487.8 346.44 484.952 349.128 481.112 351.176C477.336 353.16 472.696 354.152 467.192 354.152H457.88V377H439.064V309.32H467.192C472.632 309.32 477.24 310.28 481.016 312.2C484.856 314.12 487.736 316.776 489.656 320.168C491.576 323.56 492.536 327.464 492.536 331.88ZM465.368 339.176C470.68 339.176 473.336 336.744 473.336 331.88C473.336 326.952 470.68 324.488 465.368 324.488H457.88V339.176H465.368Z" fill="#57FFA3"/>
<path fill-rule="evenodd" clip-rule="evenodd" d="M241.373 213.339L241.416 213.382L241.445 213.411C243.331 214.841 245.633 215.614 248 215.614C250.367 215.614 252.669 214.841 254.555 213.411L254.584 213.382L254.627 213.339L254.799 213.21C255.725 212.495 256.635 211.762 257.531 211.011C268.248 201.976 278.095 191.955 286.942 181.082C302.769 161.503 319.875 133.041 319.875 100.625C319.875 81.5626 312.302 63.2809 298.823 49.8017C285.344 36.3225 267.062 28.75 248 28.75C228.938 28.75 210.656 36.3225 197.177 49.8017C183.698 63.2809 176.125 81.5626 176.125 100.625C176.125 133.041 193.231 161.503 209.072 181.082C217.919 191.955 227.766 201.976 238.484 211.011L241.201 213.21L241.373 213.339ZM248 122.188C250.832 122.188 253.636 121.63 256.252 120.546C258.868 119.463 261.245 117.874 263.247 115.872C265.249 113.87 266.838 111.493 267.921 108.877C269.005 106.261 269.562 103.457 269.562 100.625C269.562 97.7934 269.005 94.9895 267.921 92.3734C266.838 89.7573 265.249 87.3803 263.247 85.378C261.245 83.3757 258.868 81.7875 256.252 80.7038C253.636 79.6202 250.832 79.0625 248 79.0625C242.281 79.0625 236.797 81.3343 232.753 85.378C228.709 89.4218 226.438 94.9063 226.438 100.625C226.438 106.344 228.709 111.828 232.753 115.872C236.797 119.916 242.281 122.187 248 122.188Z" fill="#57FFA3"/>
<path fill-rule="evenodd" clip-rule="evenodd" d="M241.373 213.339L241.416 213.382L241.445 213.411C243.331 214.841 245.633 215.614 248 215.614C250.367 215.614 252.669 214.841 254.555 213.411L254.584 213.382L254.627 213.339L254.799 213.21C255.725 212.495 256.635 211.762 257.531 211.011C268.248 201.976 278.095 191.955 286.942 181.082C302.769 161.503 319.875 133.041 319.875 100.625C319.875 81.5626 312.302 63.2809 298.823 49.8017C285.344 36.3225 267.062 28.75 248 28.75C228.938 28.75 210.656 36.3225 197.177 49.8017C183.698 63.2809 176.125 81.5626 176.125 100.625C176.125 133.041 193.231 161.503 209.072 181.082C217.919 191.955 227.766 201.976 238.484 211.011L241.201 213.21L241.373 213.339ZM248 122.188C250.832 122.188 253.636 121.63 256.252 120.546C258.868 119.463 261.245 117.874 263.247 115.872C265.249 113.87 266.838 111.493 267.921 108.877C269.005 106.261 269.562 103.457 269.562 100.625C269.562 97.7934 269.005 94.9895 267.921 92.3734C266.838 89.7573 265.249 87.3803 263.247 85.378C261.245 83.3757 258.868 81.7875 256.252 80.7038C253.636 79.6202 250.832 79.0625 248 79.0625C242.281 79.0625 236.797 81.3343 232.753 85.378C228.709 89.4218 226.438 94.9063 226.438 100.625C226.438 106.344 228.709 111.828 232.753 115.872C236.797 119.916 242.281 122.187 248 122.188Z" fill="#57FFA3"/>
</svg>
